<?xml version="1.0" encoding="utf-8"?>
<!-- Generator: Adobe Illustrator 25.2.1, SVG Export Plug-In . SVG Version: 6.00 Build 0)  -->
<svg version="1.1" id="Layer_1" xmlns="http://www.w3.org/2000/svg" xmlns:xlink="http://www.w3.org/1999/xlink" x="0px" y="0px"
	 viewBox="0 0 500 461.9" style="enable-background:new 0 0 500 461.9;" xml:space="preserve">
<style type="text/css">
	.st0{fill:#E0E0E0;}
	.st1{fill:#FAFAFA;}
	.st2{fill:#EBEBEB;}
	.st3{fill:#FFFFFF;}
	.st4{fill:#263238;}
	.st5{fill:#455A64;}
	.st6{fill:#BD8C83;}
	.st7{fill:#896360;}
	.st8{fill:#608EF6;}
	.st9{opacity:0.3;}
	.st10{fill:#7A88CC;}
	.st11{fill:#FFBE9D;}
	.st12{opacity:0.6;}
	.st13{fill:#EB996E;}
	.st14{fill:#F5F5F5;}
</style>
<g id="freepik--background-complete--inject-119">
	<path class="st0" d="M51.5,391.6c-3.2-2-6.8-3.2-10.5-3.6c-1.7-0.3-3.5,0-5,0.9c-0.3,0.2-0.5,0.5-0.5,0.9c0.1,0.3,0.3,0.5,0.5,0.6
		C40.5,393.7,46.6,394.1,51.5,391.6"/>
	<path class="st0" d="M51.3,391.3c-2.4-1.8-4.7-3.8-6.8-6c-2.1-2.2-3.6-4.9-4.3-7.9c-0.3-0.9-0.2-1.9,0.3-2.6
		C45.9,379,50.2,384.5,51.3,391.3"/>
	<path class="st0" d="M51.5,391.6c-0.5-3-0.5-6,0.1-9c0.6-3,2.3-5.6,4.8-7.4c0.9,2.2,0.5,4.7-0.1,7c-1,3.6-2.6,6.9-4.7,10"/>
	<path class="st0" d="M56.8,401.1c-3.2,0.5-6.2,2-8.5,4.3c-2.4,2.2-4.1,5.1-4.8,8.3c3.2-0.2,5.9-2.4,7.8-5S54.6,403.5,56.8,401.1"/>
	<path class="st0" d="M58,402.7c-2.6-6.6-1.7-14,2.4-19.8C62.4,389.6,61.5,396.7,58,402.7"/>
	<path class="st0" d="M65,411.1c-6.1-0.4-11.7,2.9-14.5,8.3c-0.2,0.3-0.3,0.8-0.1,1.1c0.3,0.2,0.6,0.3,1,0.3
		c2.8-0.2,5.4-1.9,7.5-3.9S62.8,412.7,65,411.1"/>
	<path class="st0" d="M64.8,410.6c-1.5-4.9-1.6-10.1-0.3-15c0.5-1.9,1.4-4,3.2-4.9c0.1-0.1,0.3-0.1,0.5-0.1c0.1,0.1,0.3,0.2,0.3,0.4
		c0.6,1.4,0.9,2.8,0.8,4.3c-0.1,1.5-0.3,2.9-0.7,4.4c-0.6,2.7-0.9,5.5-2.3,7.8c-0.3,0.6-0.7,1.1-0.9,1.7c-0.3,0.6-0.3,0.8-0.5,1.3"
		/>
	<path class="st0" d="M83.4,413.4c-1.3-5.6,0-11.4,3.4-15.9c0.2-0.3,0.6-0.7,1-0.6c0.6,0,0.8,0.9,0.7,1.5
		C88.3,403.7,86.6,408.9,83.4,413.4"/>
	<path class="st0" d="M85.1,414.5c6.6,1.5,13.5,0.1,19-3.9c-3.2-1.6-6.8-2-10.3-1.3C90.4,410,87.3,411.8,85.1,414.5"/>
	<path class="st0" d="M86.6,411c3.8-5.9,10.3-9.6,17.3-10c-0.9,2.8-3,5-5.7,6.3c-2.6,1.2-5.4,2-8.3,2.4
		C88.8,409.9,87.3,410.2,86.6,411"/>
	<path class="st0" d="M83.8,394c1.1-3.3,1.8-6.7,2.2-10.1c0.4-3.5-0.3-7-2-10c-3.5,6.4-3.6,14-0.3,20.5"/>
	<path class="st0" d="M95.1,388.4c3.9-7.1,11.9-12.8,20-13.6C111.9,382.5,103.4,388.5,95.1,388.4"/>
	<path class="st0" d="M92.6,389.7c5.8,0.9,10.8,4.6,16.3,6.9c1.1,0.6,2.4,0.8,3.7,0.7c1.6,0,2.9-1.3,2.8-2.9c0-0.8-0.4-1.6-1-2.2
		c-0.8-0.7-1.7-1.3-2.7-1.6c-5.9-2.5-12.3-2.5-18.5-1"/>
	<path class="st0" d="M89.2,393.8c1.3,0.4,1.8,1.1,2.8,2c3.6,3,7.8,5.2,12.3,6.3c0.5,0.1,1.1,0.2,1.3-0.3s-0.1-0.8-0.3-1.1
		c-2-2.3-4.6-4-7.4-5c-2.8-1.1-5.3-2.3-8.7-2.1"/>
	<path class="st0" d="M85.4,369.1c4.8,4.5,11.3,6.7,17.9,6.1c0.3,0,0.6-0.1,0.8-0.3c0.4-0.5-0.1-1.2-0.6-1.6
		C98.2,369.2,91.9,367.5,85.4,369.1"/>
	<path class="st0" d="M89.9,367.5c6.4-4.7,14.7-6.1,22.3-3.7c-2.9,2.7-6.7,4.4-10.6,4.7C97.7,368.8,93.7,368.5,89.9,367.5"/>
	<path class="st0" d="M88.1,356.1c-0.5-5.2-0.2-9.4-0.6-14.6c0-0.4-0.1-0.9-0.5-1.1s-1,0.5-1.2,1c-1.6,4.9-0.7,10.3,2.2,14.6"/>
	<path class="st0" d="M87.8,356.7c3.4-2.2,6.4-5.1,8.7-8.4c1.7-2.4,3.2-5.2,2.8-8c-2.4,0.1-4.7,1.2-6.2,3.1
		c-1.5,1.9-2.6,4.1-3.2,6.4C89.1,352.1,88.6,354.4,87.8,356.7"/>
	<path class="st0" d="M96.3,354.3c7.8-2.9,15.1-7.2,21.4-12.6c-2.6-1-5.5-0.4-8,0.6c-5.8,2.2-10.6,6.4-13.5,11.9"/>
	<path class="st0" d="M90.2,359.6c3.9,0.6,7.9,0.6,11.8,0.1c3.8-0.8,7.5-2,11.1-3.7c0.3-0.1,0.6-0.3,0.8-0.6c0.1-0.3,0-0.7-0.3-0.9
		c-0.3-0.2-0.6-0.4-0.9-0.5c-4-1-8.2-0.7-12,0.7C97,356,93.4,357.6,90.2,359.6"/>
	<path class="st0" d="M67.6,369.3c-2.6-5.5-2.6-11.8-0.2-17.4c1.6,2.5,1.8,5.7,1.5,8.6s-1.2,6-1.3,9"/>
	<path class="st0" d="M56.9,363.9c-6.8-0.1-13.3,2.7-18,7.7c3.4,0.4,6.8-0.3,9.8-1.9c3-1.6,5.8-3.5,8.5-5.7"/>
	<path class="st0" d="M49.6,361.5c-3.3-0.3-6.5-0.7-9.6,0.3c-3.2,0.9-5.9,3.2-7.3,6.2c3.1,0.2,6.2-0.3,9-1.7
		C44.5,364.9,47.1,363.3,49.6,361.5"/>
	<path class="st0" d="M60.3,361.6c-3-1.9-6-3.9-9.4-4.7s-7.4-0.2-9.8,2.4c2.8,1.6,6.2,1.8,9.4,1.8s7.2,0,10.3,1"/>
	<path class="st0" d="M60.4,361.7c-5.1-5-7-13.9-4.9-20.7C59.4,347.1,61.2,354.4,60.4,361.7"/>
	<path class="st0" d="M74.3,347.7c1-2.2,1.6-4.5,2.5-6.8c0.8-2.3,2-4.4,3.5-6.3c1.6-1.9,3.8-3,6.3-3.2c-1.6,6.9-6,12.8-12.2,16.3"/>
	<path class="st0" d="M71.8,350.6c-1.6-2.2-3.4-5.1-5.5-6.7c-2.1-1.7-4.9-2.5-7.5-2C61.4,346.7,66.3,349.9,71.8,350.6"/>
	<path class="st0" d="M72.3,347.8c-1.1-2.6-2-5.3-2.5-8.1c-0.5-2.8-0.1-5.7,1.2-8.2c2.8,5.3,3.7,10.9,1.4,16.4"/>
	<path class="st0" d="M74.3,331.5c1.6-5.2,6.3-9,11.5-10.8c0.6-0.3,1.3-0.4,2-0.3c0.7,0.1,1.3,0.6,1.5,1.3c0.2,0.9-0.5,1.7-1.2,2.3
		C84,327.4,79.3,330,74.3,331.5"/>
	<path class="st0" d="M74.3,327.3c0.1-3.4,0.6-6.7,1.5-9.9c1-3.3,3.2-6,6.3-7.5c0.5,3.4-1,6.8-2.8,9.7s-4,5.7-5.1,8.9"/>
	<path class="st0" d="M74.3,329.6c-1.3-3.8-1.4-8.6-3.7-11.9c-1.6-2.3-4.1-3.9-5.5-6.3c-0.8,2.3-0.7,4.9,0.3,7.2
		c1,2.2,2.5,4.3,4.2,6C71.3,326.3,72.7,327.7,74.3,329.6"/>
	<path class="st0" d="M74.3,441.3c-0.1,0-0.2-25.3-0.2-56.5s0.1-56.5,0.2-56.5s0.2,25.3,0.2,56.5S74.4,441.3,74.3,441.3z"/>
	<path class="st0" d="M96.4,365.5c-0.3,0.1-0.7,0.3-1,0.4l-2.6,0.9c-2.2,0.8-5.2,1.8-8.5,3.2s-6.3,2.5-8.1,4
		c-0.7,0.6-1.2,1.3-1.6,2.1c-0.3,0.6-0.3,1-0.3,1c0-0.1,0-0.2,0-0.3c0-0.3,0.1-0.5,0.2-0.7c0.3-0.9,0.9-1.7,1.6-2.3
		c1.1-0.9,2.2-1.6,3.5-2.2c1.4-0.6,3-1.3,4.6-2c3.3-1.4,6.3-2.4,8.6-3.1c1.1-0.4,2-0.6,2.7-0.8C95.7,365.6,96,365.5,96.4,365.5z"/>
	<path class="st0" d="M103.7,347.7c0,0-0.1,0.1-0.3,0.3l-0.8,0.8l-3,2.8c-2.6,2.3-6.2,5.5-10.1,9s-7.3,6.9-9.7,9.4
		c-1.2,1.3-2.1,2.3-2.8,3l-0.7,0.8c-0.2,0.2-0.3,0.3-0.3,0.3c0.1-0.1,0.1-0.2,0.2-0.3l0.7-0.9c0.6-0.8,1.5-1.8,2.7-3.1
		c3-3.3,6.3-6.5,9.6-9.5c4-3.5,7.6-6.6,10.2-8.9l3.1-2.7l0.9-0.7C103.5,347.8,103.6,347.8,103.7,347.7z"/>
	<path class="st0" d="M85.2,364c-0.1,0,0.7-1.9,1.5-4.4s1.2-4.4,1.3-4.4c-0.1,1.6-0.4,3.1-1,4.5c-0.4,1-0.8,2-1.2,3
		C85.7,363.3,85.5,363.7,85.2,364z"/>
	<path class="st0" d="M74.3,379.4c-0.2-0.2-0.4-0.4-0.6-0.7l-1.6-2c-1.3-1.7-3.1-4-5.1-6.6s-3.9-4.8-5.2-6.5l-1.6-2
		c-0.2-0.2-0.4-0.5-0.5-0.8c0.2,0.2,0.5,0.4,0.7,0.7c0.4,0.4,1,1.1,1.7,1.9c1.4,1.6,3.3,3.9,5.3,6.4s3.8,4.9,5,6.6
		c0.6,0.9,1.1,1.6,1.5,2.1C74,378.8,74.2,379.1,74.3,379.4z"/>
	<path class="st0" d="M69.5,373.1c-1-1.1-1.6-2.4-2-3.8c-0.4-1.2-0.5-2.5-0.5-3.8h0.2c-0.1,0.3-0.1,0.5-0.2,0.4s0-0.2,0-0.5h0.2
		c0.1,1.3,0.3,2.5,0.7,3.7C68.3,370.5,68.8,371.9,69.5,373.1z"/>
	<path class="st0" d="M63.2,365.3c-0.4-0.3-0.9-0.6-1.4-0.8c-1.3-0.4-2.6-0.5-3.9-0.3c-1.3,0.1-2.7,0.3-4,0.6
		c-0.5,0.2-1.1,0.3-1.6,0.4c0.5-0.3,1-0.5,1.6-0.6c1.3-0.4,2.6-0.7,4-0.8c1.4-0.2,2.8,0,4.1,0.4C62.4,364.4,62.9,364.8,63.2,365.3z"
		/>
	<path class="st0" d="M61.7,363.4c0,0.1-0.8-0.3-2.2-0.8c-3.5-1.2-7.3-1.5-11-0.8c-1.4,0.3-2.3,0.5-2.3,0.5s0.2-0.1,0.6-0.3
		c0.5-0.2,1.1-0.3,1.6-0.5c3.7-0.8,7.5-0.5,11.1,0.9c0.5,0.2,1.1,0.4,1.6,0.7C61.4,363.1,61.6,363.2,61.7,363.4z"/>
	<path class="st0" d="M74.3,355.3c-0.6-1.8-1.2-3.6-1.6-5.5c-0.5-1.8-0.9-3.7-1.2-5.6c0.6,1.8,1.1,3.6,1.5,5.5
		C73.5,351.5,74,353.4,74.3,355.3z"/>
	<path class="st0" d="M74.4,355.3c-0.5-1.1-1.1-2.2-1.8-3.3c-0.7-1-1.6-1.9-2.6-2.7c0.4,0.1,0.7,0.3,1,0.5c0.7,0.5,1.4,1.2,1.9,2
		C73.7,352.8,74.2,354,74.4,355.3z"/>
	<path class="st0" d="M74.3,427.8c0,0-0.1-0.6-0.4-1.7c-0.4-1.5-1-3-1.7-4.4c-2.4-4.6-5.5-8.8-9-12.6c-2-2.3-3.9-4.4-5.6-6.5
		c-1.5-1.8-2.8-3.7-4-5.8c-0.8-1.4-1.5-2.8-2-4.3c-0.2-0.5-0.3-0.9-0.4-1.2c0-0.1-0.1-0.3-0.1-0.4c0,0,0.2,0.6,0.6,1.6
		c0.6,1.4,1.3,2.9,2.1,4.2c1.2,2,2.5,3.9,4,5.7c1.7,2,3.6,4.2,5.6,6.5c3.5,3.8,6.5,8.1,8.9,12.8c0.7,1.4,1.2,2.9,1.6,4.5
		c0.1,0.4,0.2,0.8,0.2,1.3C74.3,427.5,74.3,427.6,74.3,427.8z"/>
	<path class="st0" d="M94.3,405.2c-0.3,0.2-0.7,0.4-1,0.6c-1,0.5-1.9,1.1-2.7,1.8c-1.3,1-2.5,2.1-3.6,3.3c-1.3,1.3-2.5,2.9-3.8,4.5
		c-2.6,3.3-5.1,6.2-6.6,8.5c-0.8,1.2-1.3,2.1-1.7,2.8c-0.2,0.4-0.4,0.7-0.6,1c0-0.1,0.1-0.2,0.1-0.3c0.1-0.2,0.2-0.5,0.3-0.8
		c0.5-1,1-2,1.6-2.9c2-3,4.2-5.9,6.5-8.6c1.3-1.6,2.6-3.2,3.9-4.5c1.1-1.2,2.4-2.3,3.7-3.2c0.9-0.7,1.8-1.2,2.8-1.7
		c0.3-0.2,0.6-0.3,0.8-0.4C94.1,405.3,94.2,405.3,94.3,405.2z"/>
	<path class="st0" d="M94.7,412.5c-0.7,0.2-1.5,0.3-2.2,0.3c-1.8,0.2-3.5,0.5-5.3,1c-1.7,0.6-3.3,1.4-4.7,2.5
		c-1.1,0.8-1.6,1.5-1.6,1.5c0.1-0.2,0.2-0.4,0.3-0.5c0.3-0.4,0.7-0.8,1.2-1.2c1.4-1.2,3-2.1,4.8-2.6c1.7-0.5,3.5-0.8,5.3-1
		C93.2,412.5,93.9,412.5,94.7,412.5z"/>
	<path class="st0" d="M81.5,417.1c-0.1-0.1,0.9-1.6,1.7-3.6s0.9-3.9,1-3.9c0.1,0.4,0.1,0.8,0,1.2c-0.1,1-0.3,1.9-0.7,2.8
		c-0.3,0.9-0.8,1.8-1.3,2.6C82,416.5,81.8,416.8,81.5,417.1z"/>
	<path class="st0" d="M100.7,385.6c0,0-0.1,0.1-0.3,0.2l-1,0.5c-0.5,0.2-1,0.4-1.6,0.8s-1.4,0.6-2.1,1.1l-1.2,0.7
		c-0.4,0.3-0.8,0.5-1.3,0.8c-0.9,0.5-1.8,1.2-2.7,1.9c-4.1,3-7.6,6.7-10.5,10.9c-0.6,1-1.3,1.9-1.8,2.8c-0.3,0.5-0.5,0.9-0.8,1.3
		l-0.7,1.2c-0.4,0.8-0.7,1.5-1,2.1s-0.5,1.2-0.7,1.7l-0.4,1c0,0.1-0.1,0.3-0.2,0.4c0-0.1,0.1-0.3,0.1-0.4l0.4-1.1
		c0.2-0.5,0.4-1,0.7-1.7s0.6-1.4,1-2.2l0.6-1.3c0.2-0.4,0.5-0.9,0.7-1.3c0.5-0.9,1.1-1.9,1.8-2.8c1.5-2.1,3.1-4.1,4.8-5.9
		c1.8-1.8,3.7-3.5,5.8-5c1-0.7,1.9-1.3,2.8-1.9c0.4-0.3,0.9-0.5,1.3-0.8l1.2-0.7c0.8-0.4,1.5-0.8,2.2-1.1s1.2-0.5,1.7-0.7l1.1-0.4
		C100.5,385.7,100.6,385.6,100.7,385.6z"/>
	<path class="st0" d="M84.9,396.2c0.2-0.5,0.5-1,0.9-1.3c1-0.8,2.2-1.3,3.5-1.3c1.3,0,2.5,0.2,3.7,0.7c0.5,0.2,1,0.4,1.4,0.7
		c-0.5-0.1-1-0.2-1.5-0.4c-1.2-0.4-2.4-0.6-3.6-0.6c-1.2,0-2.4,0.4-3.3,1.2C85.6,395.4,85.3,395.8,84.9,396.2z"/>
	<path class="st0" d="M82.6,398.6c0.5-1,0.8-2.1,1-3.2c0.1-1.1,0-2.3-0.2-3.4c0.2,0.3,0.3,0.6,0.4,0.9c0.2,0.8,0.3,1.6,0.2,2.5
		c-0.1,0.8-0.4,1.6-0.7,2.4C83.1,398.1,82.8,398.4,82.6,398.6z"/>
	<path class="st0" d="M56.8,431.4c0.5,9.7,3.5,19.5,7.9,29.4h19.5c4.3-9.8,7-19.7,7.5-29.4H56.8z"/>
	<path class="st1" d="M88.6,447.1c0,0.1-6.4,0.2-14.3,0.2s-14.3-0.1-14.3-0.2s6.4-0.2,14.3-0.2S88.6,447,88.6,447.1z"/>
	<path class="st1" d="M88.1,450.6c0,0.1-6,0.2-13.4,0.2s-13.4-0.1-13.4-0.2s6-0.2,13.4-0.2S88.1,450.5,88.1,450.6z"/>
	<path class="st1" d="M65.1,437.8c0.2,3,0.2,6,0,9C64.8,443.8,64.8,440.8,65.1,437.8z"/>
	<path class="st1" d="M75.5,437.8c0.2,3.1,0.2,6.2,0,9.3C75.3,444,75.3,440.9,75.5,437.8z"/>
	<path class="st1" d="M85.3,437.7c0.2,3.2,0.2,6.3,0,9.5C85.1,444,85.1,440.8,85.3,437.7z"/>
	<path class="st1" d="M91.1,437.8c0,0.1-7.5,0.2-16.8,0.2s-16.8-0.1-16.8-0.2s7.5-0.2,16.8-0.2S91.1,437.7,91.1,437.8z"/>
	<path class="st0" d="M436,379.8c-0.1,0.1-0.8-0.3-1.6-0.9s-1.3-1.2-1.3-1.3s0.8,0.3,1.6,1S436.1,379.7,436,379.8z"/>
	<path class="st2" d="M457.3,347.9c0.3-3,0-6-0.7-8.9c-0.9-2.8-3.1-5.4-6-6c-3.3-0.7-6.8,1.4-8.6,4.3s-2.5,6.3-3.1,9.6
		c-3.8,23.1-5.2,46.6-4.2,70.1l13.6,1.9C454.3,394.4,456.3,373.1,457.3,347.9z"/>
	<path class="st0" d="M448.7,332.9c0,0,0,0.1-0.1,0.2l-0.2,0.6c-0.2,0.6-0.5,1.4-0.9,2.4c-0.2,0.5-0.4,1.1-0.6,1.7l-0.7,2.1
		l-0.8,2.4c-0.2,0.9-0.5,1.8-0.7,2.7c-1.1,4.4-2,8.9-2.6,13.5c-0.7,5.1-1.2,10.8-1.6,16.8c-0.7,11.9-0.8,22.8-1.1,30.6
		c-0.1,3.9-0.3,7.1-0.4,9.3c-0.1,1.1-0.1,1.9-0.2,2.5c0,0.3,0,0.5-0.1,0.6c0,0.1,0,0.1,0,0.2c0-0.1,0-0.1,0-0.2c0-0.2,0-0.4,0-0.7
		c0-0.6,0-1.5,0.1-2.5c0.1-2.2,0.2-5.4,0.3-9.3c0.2-7.8,0.3-18.7,1-30.6c0.4-6,0.9-11.7,1.6-16.8c0.6-4.6,1.6-9.1,2.7-13.5
		c0.3-1,0.5-1.9,0.7-2.7l0.8-2.4c0.3-0.7,0.5-1.4,0.7-2.1s0.5-1.2,0.7-1.7l1-2.3c0.1-0.2,0.2-0.4,0.3-0.6S448.7,332.9,448.7,332.9z"
		/>
	<path class="st0" d="M450,332.9c0.7,0.8,1.3,1.8,1.7,2.8c1,2.8,1.5,5.8,1.2,8.8c-0.4,7.5-1,17.9-1.9,29.4s-1.9,21.8-2.7,29.3
		c-0.4,3.7-0.8,6.8-1,8.9c-0.1,1-0.2,1.8-0.3,2.4l-0.1,0.6c0,0.1,0,0.1,0,0.2c0,0,0-0.1,0-0.2s0-0.4,0-0.6c0.1-0.6,0.1-1.4,0.2-2.4
		c0.2-2.1,0.5-5.2,0.9-8.9c0.7-7.5,1.7-17.9,2.6-29.3s1.6-21.8,2.1-29.3c0.3-3-0.1-5.9-1.1-8.7C451.1,334.8,450.6,333.8,450,332.9z"
		/>
	<path class="st0" d="M459.4,368.2c-0.9-0.1-1.8-0.3-2.6-0.7c-0.9-0.2-1.7-0.6-2.4-1.1C456.2,366.7,457.8,367.3,459.4,368.2
		L459.4,368.2z"/>
	<path class="st0" d="M461,354.3c-0.7,0.6-1.6,1-2.5,1.4c-0.8,0.5-1.7,0.8-2.7,0.9c0.7-0.6,1.6-1,2.5-1.4
		C459.2,354.8,460.1,354.5,461,354.3z"/>
	<path class="st0" d="M460.2,343c-0.7,0.2-1.3,0.2-2,0.1c-0.7,0-1.4-0.1-2-0.4c0.7-0.2,1.3-0.2,2-0.1
		C458.9,342.6,459.6,342.7,460.2,343z"/>
	<path class="st0" d="M446.1,335.7c-0.1,0.1-0.7-0.7-1.3-1.7s-1-1.8-0.9-1.9s0.7,0.7,1.3,1.7S446.2,335.6,446.1,335.7z"/>
	<path class="st0" d="M441.5,342.6c-1.3,0.3-2.6,0.3-3.9-0.1c0-0.1,0.9-0.2,1.9-0.2S441.5,342.4,441.5,342.6z"/>
	<path class="st0" d="M438.1,356.3c-0.7,0-1.4-0.2-2-0.6c-1.1-0.4-1.9-0.9-1.9-1c0.7,0,1.4,0.2,2,0.6
		C437.4,355.7,438.2,356.1,438.1,356.3z"/>
	<path class="st0" d="M437.8,367.8c0,0.1-0.8,0.4-1.7,0.6s-1.8,0.3-1.8,0.1s0.8-0.4,1.7-0.6S437.8,367.7,437.8,367.8z"/>
	<path class="st0" d="M436.2,386.7c0,0.1-0.8,0.4-1.8,0.6s-1.9,0.2-1.9,0.1s0.8-0.4,1.8-0.6C434.9,386.6,435.6,386.6,436.2,386.7z"
		/>
	<path class="st0" d="M435.2,397.1c0.1,0.1-0.6,0.6-1.5,1.1s-1.7,0.8-1.8,0.7s0.6-0.6,1.5-1.1S435.1,397,435.2,397.1z"/>
	<path class="st0" d="M443.7,408.9c-0.6-0.5-1-1.1-1.3-1.9c-0.5-0.6-0.8-1.3-0.9-2.1c0.1-0.1,0.7,0.8,1.3,1.9
		C443.2,407.5,443.5,408.2,443.7,408.9z"/>
	<path class="st0" d="M446.1,389.3c0.1,0.1-0.6,0.9-1.5,1.8s-1.7,1.5-1.8,1.5s0.6-0.9,1.5-1.8S446,389.2,446.1,389.3z"/>
	<path class="st0" d="M445.6,379c-0.1,0.1-0.7-0.4-1.4-1.1s-1.1-1.4-1-1.5s0.7,0.4,1.4,1.1S445.7,378.9,445.6,379z"/>
	<path class="st0" d="M447.3,365.8c0.1,0.1-0.5,0.9-1.2,1.8s-1.5,1.5-1.6,1.4s0.5-0.9,1.3-1.8S447.2,365.7,447.3,365.8z"/>
	<path class="st0" d="M448.2,356.2c-0.1,0.1-0.9-0.5-1.7-1.4s-1.5-1.6-1.4-1.7s0.9,0.5,1.7,1.4S448.3,356.1,448.2,356.2z"/>
	<path class="st0" d="M450.1,343.3c-0.1,0.7-0.4,1.4-0.9,1.9c-0.6,1-1.2,1.8-1.3,1.7s0.3-0.9,0.9-1.9S450,343.2,450.1,343.3z"/>
	<path class="st0" d="M453.6,331.3c-0.1,0.7-0.4,1.4-0.8,1.9c-0.5,1-1.1,1.8-1.2,1.7c0.1-0.7,0.4-1.4,0.8-1.9
		C452.9,332,453.5,331.3,453.6,331.3z"/>
	<path class="st0" d="M457.6,336.8c0.1,0.1-0.5,0.5-1.2,0.9s-1.4,0.5-1.4,0.4s0.5-0.5,1.2-0.9S457.5,336.7,457.6,336.8z"/>
	<path class="st0" d="M457.7,379.8c-0.9,0-1.9-0.2-2.7-0.6c-0.9-0.3-1.7-0.8-2.3-1.4C454.4,378.4,456.1,379.1,457.7,379.8
		L457.7,379.8z"/>
	<path class="st0" d="M456,388.9c0,0.1-0.8,0.4-1.8,0.6c-0.6,0.2-1.3,0.2-1.9,0.1c0-0.1,0.8-0.4,1.8-0.6
		C454.7,388.8,455.4,388.8,456,388.9z"/>
	<path class="st0" d="M454,404.5c-0.1,0.1-1.1-0.6-2.1-1.8c-0.6-0.7-1.1-1.5-1.3-2.4c0.6,0.7,1.2,1.4,1.7,2.1
		C453,403,453.5,403.8,454,404.5z"/>
	<path class="st0" d="M432.1,411.7c-0.1-0.1,0.5-0.7,1.2-1.4s1.5-1.1,1.5-1s-0.5,0.7-1.2,1.4S432.2,411.8,432.1,411.7z"/>
	<path class="st2" d="M425.8,377.6c-0.9-2.8-2.5-6-5.5-6c-1.8,0.1-3.3,1.1-4.1,2.7c-0.8,1.5-1.2,3.3-1.1,5
		c0.4,12.3,2.5,24.6,6.3,36.3h10.6C432,402.7,429.8,389.8,425.8,377.6z"/>
	<path class="st2" d="M406.6,360.1c-1.5-6-5.9-9.2-11.1-9.5c-4.7,0.8-6.5,5.5-7.1,10.2s0.9,9.5,2.4,14l14,43.8l13.2-1.5
		C413.9,397.7,411.5,379.5,406.6,360.1z"/>
	<path class="st0" d="M420.4,371.5c-0.3,0.5-0.6,1-0.9,1.5c-0.5,1.5-0.7,3.1-0.5,4.7c0.2,2,0.4,4.5,0.8,7.1s0.8,5.6,1.4,8.7
		c1.2,6.1,2.5,11.6,3.4,15.6c0.4,2,0.8,3.6,1,4.8c0.1,0.5,0.2,1,0.2,1.3c0,0.2,0,0.3,0,0.5c-0.1-0.1-0.1-0.3-0.1-0.4
		c-0.1-0.4-0.2-0.8-0.3-1.3c-0.3-1.2-0.7-2.8-1.1-4.7c-1-4-2.4-9.5-3.6-15.6c-0.6-3.1-1.1-6-1.4-8.7c-0.2-1.3-0.3-2.6-0.4-3.8
		s-0.2-2.3-0.3-3.3c-0.2-1.6,0-3.3,0.7-4.8C419.5,372.4,419.9,371.9,420.4,371.5z"/>
	<path class="st0" d="M395.7,350.3c-0.6,0.7-1.1,1.4-1.6,2.1c-1.2,2.1-1.9,4.5-2,6.9c-0.1,3.6,0.5,7.2,1.6,10.7
		c1.2,3.9,2.4,8.3,3.8,12.8c2.6,9.1,5,17.3,6.8,23.3c0.8,3,1.5,5.4,2,7.1c0.2,0.8,0.4,1.4,0.5,1.9c0.1,0.2,0.1,0.5,0.1,0.7
		c-0.1-0.2-0.2-0.4-0.3-0.6l-0.6-1.9c-0.5-1.7-1.3-4.1-2.1-7c-1.8-6-4.2-14.2-6.9-23.3c-1.3-4.5-2.6-8.9-3.7-12.8
		c-1.1-3.5-1.7-7.1-1.5-10.8c0.1-2.5,0.9-4.9,2.2-7C394.4,351.6,395,350.9,395.7,350.3z"/>
	<path class="st0" d="M415.2,415.8c-0.1-0.2-0.2-0.4-0.3-0.6c-0.2-0.4-0.5-1-0.8-1.9c-0.6-1.6-1.4-4-2.3-7s-1.7-6.6-2.5-10.7
		s-1.6-8.5-2.5-13.2s-2-9.1-3.1-13c-1-3.5-2.3-6.9-3.9-10.2c-1-2.2-2.2-4.4-3.6-6.4c-0.5-0.8-0.9-1.3-1.1-1.7
		c-0.1-0.2-0.3-0.4-0.4-0.6c0.2,0.2,0.3,0.3,0.5,0.5c0.3,0.4,0.7,0.9,1.2,1.6c1.4,2,2.6,4.2,3.7,6.4c1.6,3.3,2.9,6.7,4,10.2
		c1.3,4.3,2.3,8.6,3.2,13c0.9,4.7,1.7,9.1,2.5,13.2s1.6,7.7,2.4,10.7s1.5,5.4,2.1,7c0.3,0.8,0.5,1.5,0.7,1.9
		C415,415.4,415.1,415.6,415.2,415.8z"/>
	<path class="st0" d="M391,372.7c0,0.1-0.7,0.4-1.6,0.6s-1.7,0.3-1.7,0.2s0.7-0.4,1.6-0.6S391,372.6,391,372.7z"/>
	<path class="st0" d="M389.6,363.7c-0.7,0.2-1.5,0.3-2.2,0.2c-0.7,0.1-1.5,0.1-2.2-0.1c0.7-0.3,1.5-0.5,2.2-0.4
		C388.1,363.3,388.9,363.4,389.6,363.7z"/>
	<path class="st0" d="M391.1,355.4c-0.1,0.1-0.8-0.4-1.6-1s-1.4-1.3-1.3-1.4s0.8,0.4,1.6,1S391.2,355.3,391.1,355.4z"/>
	<path class="st0" d="M395.2,347.8c0.1,0,0.1,0.7,0.1,1.5s0,1.4-0.2,1.5s-0.4-0.6-0.3-1.5S395,347.7,395.2,347.8z"/>
	<path class="st0" d="M403.4,351.4c0.1,0.1-0.2,0.7-0.7,1.5s-1,1.3-1.1,1.2s0.2-0.7,0.7-1.5S403.3,351.3,403.4,351.4z"/>
	<path class="st0" d="M408.8,360.7c0,0.1-0.6,0.5-1.5,0.9s-1.7,0.6-1.7,0.4s0.6-0.5,1.5-0.9S408.7,360.5,408.8,360.7z"/>
	<path class="st0" d="M412,370.2c-0.6,0.5-1.3,0.8-2.1,0.9c-0.7,0.2-1.5,0.3-2.3,0.1c0.7-0.3,1.4-0.5,2.2-0.5
		C410.5,370.4,411.2,370.3,412,370.2z"/>
	<path class="st0" d="M397.1,367.5c-0.1,0,0-0.7,0.2-1.5s0.5-1.4,0.7-1.3s0,0.7-0.2,1.5S397.2,367.6,397.1,367.5z"/>
	<path class="st0" d="M399.2,379.5c-0.1-0.1,0.1-1,0.6-2s0.9-1.9,1-1.8c0,0.7-0.3,1.4-0.6,2C399.8,378.8,399.3,379.6,399.2,379.5z"
		/>
	<path class="st0" d="M394,382.8c-0.7,0-1.3-0.2-1.9-0.4c-1-0.3-1.8-0.6-1.8-0.8c0.7-0.1,1.3,0,2,0.3
		C393.3,382.3,394.1,382.7,394,382.8z"/>
	<path class="st0" d="M397,392.6c0.1,0.1-0.5,0.6-1.3,1.2s-1.5,0.9-1.5,0.8s0.5-0.6,1.3-1.2S396.9,392.5,397,392.6z"/>
	<path class="st0" d="M399.4,402.4c0,0.1-0.7,0.4-1.6,0.6s-1.6,0.3-1.7,0.1s0.7-0.4,1.6-0.6S399.4,402.3,399.4,402.4z"/>
	<path class="st0" d="M412.3,378.4c0.1,0.1-0.5,0.6-1.4,0.9s-1.6,0.4-1.7,0.2s0.7-0.4,1.5-0.7S412.2,378.3,412.3,378.4z"/>
	<path class="st0" d="M414.1,393.6c-0.1,0.1-0.8-0.1-1.6-0.5s-1.5-0.8-1.4-0.9s0.8,0.1,1.6,0.5S414.2,393.5,414.1,393.6z"/>
	<path class="st0" d="M417.4,404.5c-0.7,0-1.5-0.2-2.1-0.6c-1.1-0.4-2-0.9-1.9-1c0.7,0,1.5,0.2,2.1,0.6
		C416.2,403.7,416.8,404,417.4,404.5z"/>
	<path class="st0" d="M399.9,413c-0.1-0.1,0.8-0.7,1.8-1.5s1.8-1.5,1.9-1.4s-0.5,1-1.6,1.8C401.4,412.4,400.7,412.8,399.9,413z"/>
	<path class="st0" d="M408.5,407.5c-0.1,0-0.3-0.7-0.7-1.6s-0.7-1.5-0.6-1.6s0.7,0.5,1,1.4S408.6,407.5,408.5,407.5z"/>
	<path class="st0" d="M406.2,394.4c-0.1,0.1-0.6-0.1-1.2-0.6s-1-0.9-1-1s0.6,0.2,1.2,0.6S406.3,394.3,406.2,394.4z"/>
	<path class="st0" d="M426.3,373.9c0.1,0.1-0.5,0.6-1.2,1.2s-1.4,0.9-1.5,0.8s0.5-0.6,1.2-1.2S426.2,373.8,426.3,373.9z"/>
	<path class="st0" d="M429.3,382.1c0,0.1-0.8,0.3-1.9,0.2s-1.8-0.5-1.8-0.6s0.9,0,1.9,0.1C428.1,381.8,428.7,381.9,429.3,382.1z"/>
	<path class="st0" d="M416.3,384c0,0.1-0.8,0.4-1.8,0.5s-1.8-0.1-1.8-0.2s0.8-0.2,1.8-0.3S416.3,383.9,416.3,384z"/>
	<path class="st0" d="M417.4,376.2c0,0.1-0.8,0.1-1.7-0.3s-1.4-1-1.3-1.1s0.7,0.3,1.5,0.7S417.4,376,417.4,376.2z"/>
	<path class="st0" d="M430.4,391c-0.1,0.1-0.9-0.3-1.8-0.9s-1.6-1.2-1.6-1.3s0.9,0.3,1.8,0.9S430.5,390.9,430.4,391z"/>
	<rect x="392.8" y="414.2" class="st0" width="69.3" height="12.3"/>
	<polygon class="st0" points="398,424 406.4,460.7 447.7,460.7 456.9,424 	"/>
	<path class="st2" d="M462.1,426.5c0,0.1-15.6,0.2-34.9,0.2s-34.9-0.1-34.9-0.2s15.6-0.2,34.9-0.2S462.1,426.4,462.1,426.5z"/>
	<path class="st0" d="M423.5,384.3c-0.1,0.1-0.6-0.5-1.1-1.2s-0.8-1.4-0.6-1.5s0.6,0.5,1.1,1.2S423.6,384.2,423.5,384.3z"/>
	<path class="st0" d="M423.5,394.1c-0.1,0,0-0.9,0.4-1.9s0.7-1.8,0.8-1.7s0,0.9-0.4,1.9S423.7,394.2,423.5,394.1z"/>
	<path class="st0" d="M426.9,404.5c-0.5-0.5-0.9-1.2-1.1-1.9c-0.4-0.6-0.6-1.3-0.7-2.1c0.1-0.1,0.6,0.8,1.2,1.9
		C426.6,403.1,426.8,403.8,426.9,404.5z"/>
	<path class="st0" d="M419.6,412.9c-0.1-0.1,0.3-0.7,0.9-1.4s1.2-1.2,1.3-1.1s-0.3,0.7-0.9,1.4S419.7,413,419.6,412.9z"/>
	<path class="st0" d="M418.1,397.7c0,0.1-0.7,0.1-1.5,0s-1.4-0.4-1.4-0.5s0.7-0.1,1.5,0S418.1,397.6,418.1,397.7z"/>
	
		<rect x="387.1" y="66.8" transform="matrix(0.9523 -0.3052 0.3052 0.9523 -7.9471 124.7209)" class="st0" width="15.6" height="41.9"/>
	
		<rect x="383.1" y="68.1" transform="matrix(0.9523 -0.3052 0.3052 0.9523 -8.53 123.5567)" class="st2" width="15.6" height="41.9"/>
	<path class="st3" d="M390.6,77.8c0.6,1.9-0.4,3.8-2.3,4.4c-1.9,0.6-3.8-0.4-4.4-2.3c-0.6-1.8,0.4-3.8,2.3-4.4
		C388,75,390,76,390.6,77.8z"/>
	<path class="st2" d="M397.9,71.5c-0.1,1.2-0.4,2.4-0.8,3.6c-0.3,1.2-0.7,2.4-1.3,3.4c0.1-1.2,0.4-2.4,0.8-3.6
		C396.8,73.7,397.3,72.5,397.9,71.5z"/>
	<path class="st2" d="M399.3,75.9c-0.1,1.2-0.4,2.4-0.8,3.6c-0.3,1.2-0.7,2.4-1.3,3.4c0.1-1.2,0.4-2.4,0.8-3.6
		C398.2,78.1,398.7,77,399.3,75.9z"/>
	<path class="st2" d="M400.7,80.3c-0.1,1.2-0.4,2.4-0.8,3.6c-0.3,1.2-0.7,2.4-1.3,3.4c0.1-1.2,0.4-2.4,0.8-3.6
		C399.6,82.5,400.1,81.4,400.7,80.3z"/>
	<path class="st2" d="M402.1,84.7c-0.1,1.2-0.4,2.4-0.8,3.6c-0.3,1.2-0.7,2.4-1.3,3.4c0.1-1.2,0.4-2.4,0.8-3.6
		C401.1,86.9,401.5,85.8,402.1,84.7z"/>
	<path class="st2" d="M403.5,89.1c-0.1,1.2-0.4,2.4-0.8,3.6c-0.3,1.2-0.7,2.4-1.3,3.4c0.1-1.2,0.4-2.4,0.8-3.6
		C402.5,91.4,402.9,90.2,403.5,89.1z"/>
	<path class="st2" d="M405,93.5c-0.1,1.2-0.4,2.4-0.8,3.6c-0.3,1.2-0.7,2.4-1.3,3.4c0.1-1.2,0.4-2.4,0.8-3.6
		C404,95.8,404.4,94.6,405,93.5z"/>
	<path class="st2" d="M406.4,98c-0.1,1.2-0.4,2.4-0.8,3.6c-0.3,1.2-0.7,2.4-1.3,3.4c0.1-1.2,0.4-2.4,0.8-3.6
		C405.3,100.2,405.8,99,406.4,98z"/>
	<path class="st2" d="M396.6,67.6c-0.1,1.2-0.4,2.4-0.8,3.6c-0.3,1.2-0.7,2.4-1.3,3.4c0.1-1.2,0.4-2.4,0.8-3.6
		C395.5,69.8,396,68.6,396.6,67.6z"/>
	<path class="st2" d="M394.4,65.9c0,0.7-0.1,1.5-0.4,2.2c-0.4,1.2-0.8,2-0.9,2c0-0.7,0.1-1.5,0.4-2.2
		C393.9,66.8,394.3,65.9,394.4,65.9z"/>
	<path class="st0" d="M415.3,99.8l-10.5-35.6c0,0,7.4-4,11-17c2.4-8.5-1.7-15.5-1.8-18.9c-0.1-2.1,4.5-3.1,6.6-3.5s5.3-0.3,7.5,2.2
		c4.1,4.7,5,18.8,5,18.8s-0.6,3.1,3.1,1.9l13.3-4.2c1.7-0.6,3.6-0.5,5.3,0.2c1.7,0.7,3,2.2,3.4,4.1c1.2,5.2-0.7,8.3-0.4,9.3
		s2.4,2.5,2.4,5.8c0,3.4-0.8,3.3-0.4,4.8c0.8,2.5,1.2,5.2,1.2,7.8c-0.1,1.4-0.4,2.7-0.9,4c0,0,2.1,4.7,1.5,7.9
		c-0.8,4.2-8.8,9.3-13,8.8c-1.9-0.2-10.4,0.4-14.4,0.7S418.3,97,415.3,99.8z"/>
	<path class="st2" d="M410.6,101.8l-11.4-35.7c0,0,7.4-4,11-17c1.7-5.9,2.6-12.1,2.5-18.3c-0.1-2.1,1.3-3.9,3.4-4.3
		c2.4-0.6,5,0.2,6.6,2.2c4.1,4.7,4.7,19.1,4.7,19.1s-0.6,3.1,3.1,1.9l13.3-4.3c1.7-0.6,3.6-0.5,5.3,0.2c1.8,0.7,3,2.2,3.4,4.1
		c1.2,5.2-0.7,8.3-0.4,9.3s2.4,2.4,2.3,5.8c-0.1,3.4-0.8,3.3-0.4,4.8c0.8,2.5,1.2,5.2,1.2,7.8c-0.1,1.4-0.4,2.7-0.9,4
		c0,0,1.9,4.7,1.5,7.9s-5.5,6.5-7.4,7s-16,2.2-20,2.5S413.7,98.9,410.6,101.8z"/>
	<path class="st2" d="M431.9,38.4c-0.4,1.6-1,3.1-1.9,4.5c-0.7,1.5-1.5,2.9-2.6,4.1c0.6-1.5,1.3-3,2.1-4.4
		C430.2,41.1,431,39.7,431.9,38.4z"/>
	<path class="st2" d="M431.1,33.4c-0.4,1.4-1,2.8-1.9,4c-0.7,1.3-1.6,2.5-2.5,3.6c0.5-1.4,1.2-2.7,2.1-3.9
		C429.5,35.8,430.3,34.6,431.1,33.4z"/>
	<path class="st2" d="M429.4,29.2c-0.2,1.2-0.8,2.3-1.5,3.3c-0.7,1-1.4,2-2.2,2.8c0.4-1.2,1-2.2,1.8-3.1
		C428.5,30.6,429.2,29.1,429.4,29.2z"/>
	<path class="st2" d="M426.7,26c-0.2,0.9-0.6,1.7-1.2,2.4c-0.8,1.2-1.5,2.2-1.6,2.1c0.2-0.9,0.6-1.7,1.2-2.4
		C425.9,26.9,426.6,26,426.7,26z"/>
	<path class="st2" d="M423.4,24.8c0.1,0.1-0.2,0.7-0.8,1.4s-1.1,1.1-1.2,1s0.2-0.7,0.8-1.4S423.3,24.7,423.4,24.8z"/>
	<path class="st2" d="M432.9,45c-0.2,0.9-0.7,1.8-1.2,2.5c-0.4,0.8-1,1.6-1.7,2.2c0.3-0.9,0.7-1.8,1.2-2.5
		C431.7,46.4,432.2,45.6,432.9,45z"/>
	<path class="st2" d="M458.5,50.5c-0.9,1.5-1.9,2.9-3,4.2c-1,1.4-2.1,2.7-3.3,3.9c0.9-1.5,1.9-2.9,3-4.2
		C456.1,53,457.2,51.7,458.5,50.5z"/>
	<path class="st2" d="M456.3,44.5c-0.4,1-1,1.8-1.7,2.6c-0.6,0.9-1.3,1.6-2.1,2.3c0.4-1,1-1.8,1.7-2.6
		C454.8,45.9,455.5,45.2,456.3,44.5z"/>
	<path class="st2" d="M459.2,59.8c-0.7,1.1-1.4,2.1-2.3,3.1c-0.7,1.1-1.5,2.1-2.4,3c0.5-1.2,1.1-2.3,2-3.3
		C457.2,61.5,458.1,60.6,459.2,59.8z"/>
	<path class="st2" d="M459.5,67.3c-0.5,1.2-1.2,2.3-2,3.2c-0.7,1.1-1.5,2.1-2.4,2.9c0.5-1.2,1.2-2.3,2-3.2
		C457.7,69.2,458.5,68.2,459.5,67.3z"/>
	<path class="st2" d="M460.5,76c-0.5,1.4-1.3,2.7-2.3,3.8c-0.8,1.2-1.8,2.3-3,3.3c0.8-1.3,1.6-2.5,2.6-3.6
		C458.6,78.2,459.5,77,460.5,76z"/>
	<path class="st2" d="M461,83.3c-0.7,1.6-1.6,3.1-2.7,4.4c-0.9,1.4-2.1,2.7-3.4,3.8c0.9-1.4,1.9-2.8,3-4.2
		C458.8,86,459.9,84.6,461,83.3z"/>
	
		<rect x="62.2" y="105.5" transform="matrix(0.4742 -0.8804 0.8804 0.4742 -56.7948 128.9212)" class="st0" width="34.8" height="12.9"/>
	
		<rect x="65.2" y="107.2" transform="matrix(0.4742 -0.8804 0.8804 0.4742 -56.632 132.5051)" class="st2" width="34.8" height="12.9"/>
	<path class="st3" d="M84.6,104.6c-0.8,1.4-0.2,3.2,1.2,3.9c1.4,0.8,3.2,0.2,3.9-1.2c0.7-1.4,0.2-3.1-1.2-3.9
		C87.2,102.6,85.4,103.1,84.6,104.6C84.6,104.5,84.6,104.5,84.6,104.6z"/>
	<path class="st2" d="M79.6,98.3c0.4,1,0.6,2,0.6,3c0.2,1,0.2,2,0.1,3.1c-0.4-1-0.6-2-0.6-3C79.5,100.3,79.5,99.3,79.6,98.3z"/>
	<path class="st2" d="M77.8,101.7c0.4,1,0.6,2,0.6,3c0.2,1,0.2,2,0.1,3c-0.4-1-0.6-2-0.6-3C77.7,103.7,77.7,102.7,77.8,101.7z"/>
	<path class="st2" d="M76,105c0.4,1,0.6,2,0.6,3c0.2,1,0.2,2,0.1,3.1c-0.4-1-0.6-2-0.6-3C75.9,107.1,75.9,106,76,105z"/>
	<path class="st2" d="M74.2,108.4c0.4,1,0.6,2,0.6,3c0.2,1,0.2,2,0.1,3.1c-0.4-1-0.6-2-0.6-3C74,110.5,74,109.4,74.2,108.4z"/>
	<path class="st2" d="M72.3,111.8c0.4,1,0.6,2,0.6,3c0.2,1,0.2,2,0.1,3.1c-0.4-1-0.6-2-0.6-3C72.2,113.9,72.2,112.8,72.3,111.8z"/>
	<path class="st2" d="M70.5,115.2c0.4,1,0.6,2,0.6,3c0.2,1,0.2,2,0.1,3.1c-0.4-1-0.6-2-0.6-3C70.4,117.2,70.4,116.2,70.5,115.2z"/>
	<path class="st2" d="M68.7,118.6c0.4,1,0.6,2,0.6,3c0.2,1,0.2,2,0.1,3.1c-0.4-1-0.6-2-0.6-3C68.6,120.6,68.5,119.6,68.7,118.6z"/>
	<path class="st2" d="M81.3,95.3c0.4,1,0.6,2,0.6,3c0.2,1,0.2,2,0.1,3.1c-0.4-1-0.6-2-0.6-3C81.2,97.3,81.1,96.3,81.3,95.3z"/>
	<path class="st2" d="M83.3,94.3c0.1,0,0.3,0.8,0.5,1.8s0.1,1.8,0,1.8s-0.3-0.8-0.5-1.8S83.2,94.3,83.3,94.3z"/>
	<path class="st0" d="M61.2,118.7l13.9-27.4c0,0-5.4-4.4-6.3-15.5c-0.6-7.3,3.8-12.4,4.4-15.1c0.4-1.7-3.2-3.2-4.8-3.9
		c-2.1-0.9-4.6-0.7-6.5,0.6c-4.1,3.2-6.9,14.6-6.9,14.6s0,2.6-2.8,1.1l-10.2-5.5c-1.3-0.7-2.8-1-4.3-0.7c-1.5,0.3-2.8,1.3-3.4,2.8
		c-1.8,4-0.7,6.8-1.1,7.7s-2.3,1.6-2.8,4.4s0.2,2.8-0.4,4c-1,1.9-1.8,4-2.1,6.2c-0.2,1.1-0.1,2.3,0.1,3.4c0,0-2.4,3.5-2.4,6.2
		c0,3.5,5.8,8.9,9.2,9.2c1.6,0.1,8.4,1.9,11.7,2.7S59.1,115.9,61.2,118.7z"/>
	<path class="st2" d="M64.6,121l14.7-27.3c0,0-5.4-4.4-6.4-15.5c-0.5-5.1-0.3-10.3,0.7-15.3c0.4-1.7-0.5-3.3-2.1-4
		c-1.9-0.9-4.1-0.6-5.7,0.8c-4.1,3.2-6.7,14.8-6.7,14.8s0,2.6-2.8,1.1L46.2,70c-1.3-0.7-2.8-1-4.3-0.7c-1.5,0.3-2.8,1.3-3.4,2.8
		c-1.8,4-0.7,6.8-1.1,7.7s-2.4,1.6-2.8,4.4s0.2,2.8-0.4,4c-1,1.9-1.8,4-2.2,6.1c-0.2,1.1-0.1,2.3,0.2,3.4c0,0-2.3,3.5-2.4,6.2
		s3.5,6.1,5,6.9s12.7,4.2,15.9,5S62.6,118.2,64.6,121z"/>
	<path class="st2" d="M56.9,66.1c0.6,1.2,1,2.5,1.3,3.8c0.5,1.3,0.8,2.6,1,3.9c-0.7-1.2-1.2-2.4-1.5-3.7
		C57.2,68.8,57,67.5,56.9,66.1z"/>
	<path class="st2" d="M58.3,62.2c0.5,1.1,1,2.2,1.3,3.4c0.5,1.1,0.9,2.3,1.1,3.5c-0.7-1-1.2-2.1-1.6-3.3
		C58.7,64.6,58.4,63.4,58.3,62.2z"/>
	<path class="st2" d="M60.4,59c0.5,0.9,0.9,1.8,1.2,2.7c0.5,0.9,0.8,1.8,1,2.8c-0.6-0.8-1.1-1.7-1.4-2.6
		C60.6,61.1,60.4,60.1,60.4,59z"/>
	<path class="st2" d="M63,56.9c0.1-0.1,0.6,0.8,1,1.9c0.3,0.7,0.5,1.4,0.6,2.1c-0.1,0-0.6-0.8-1-1.9C63.2,58.4,63,57.6,63,56.9z"/>
	<path class="st2" d="M65.9,56.4c0.1-0.1,0.5,0.4,0.8,1s0.5,1.2,0.4,1.3s-0.5-0.4-0.8-1S65.8,56.5,65.9,56.4z"/>
	<path class="st2" d="M55.1,71.4c0.5,0.6,0.9,1.3,1.1,2.1c0.4,0.7,0.6,1.5,0.6,2.2c-0.5-0.6-0.9-1.3-1.1-2.1
		C55.3,72.9,55.1,72.2,55.1,71.4z"/>
	<path class="st2" d="M33.5,72c0.9,1.1,1.6,2.4,2.2,3.7c0.7,1.2,1.3,2.6,1.7,3.9c-0.9-1.1-1.6-2.4-2.2-3.7
		C34.5,74.7,33.9,73.4,33.5,72z"/>
	<path class="st2" d="M36.1,67.5c0.6,0.6,1.1,1.3,1.4,2.2c0.5,0.7,0.8,1.5,0.9,2.4c-0.6-0.6-1.1-1.3-1.4-2.2
		C36.5,69.1,36.2,68.3,36.1,67.5z"/>
	<path class="st2" d="M31.4,79.5c0.8,0.7,1.4,1.6,1.8,2.6c0.6,0.9,0.9,1.9,1.1,3c-0.6-0.9-1.1-1.8-1.6-2.8
		C32.2,81.5,31.8,80.5,31.4,79.5z"/>
	<path class="st2" d="M30.1,85.6c0.7,0.8,1.2,1.7,1.5,2.7c0.5,0.9,0.9,1.9,1.1,3c-0.7-0.8-1.2-1.7-1.5-2.7
		C30.6,87.6,30.3,86.6,30.1,85.6z"/>
	<path class="st2" d="M27.9,92.4c0.7,1,1.2,2.1,1.7,3.3c0.6,1.1,1.1,2.2,1.5,3.3c-0.8-0.9-1.5-2-2-3.1
		C28.5,94.8,28.1,93.7,27.9,92.4z"/>
	<path class="st2" d="M26.4,98.4c0.8,1.2,1.4,2.5,2,3.8c0.7,1.2,1.3,2.5,1.8,3.9c-0.9-1.1-1.7-2.3-2.2-3.6
		C27.2,101.1,26.7,99.8,26.4,98.4z"/>
</g>
<g id="freepik--Hand--inject-119">
	<path class="st4" d="M243.4,158.8l1.6-66.6c0,0,14.8-2.9,28.1-23c8.8-13.4,5.5-27.5,7.2-33.4c1-3.6,9.5-2.9,13.2-2.4
		c3.5,0.4,9.3,2.4,11.7,7.9c4.5,10.3-1.8,34.9-1.8,34.9s-2.8,5,4.3,5h25c3.3,0,6.4,1.1,8.9,3.2c2.6,2.1,4,5.5,3.7,8.8
		c-0.8,9.5-5.8,13.8-5.8,15.8s2.8,5.5,0.8,11.3s-3.3,5.3-3.3,8s-0.5,9.8-2.3,14c-0.9,2.3-2.1,4.4-3.8,6.3c0,0,0.8,9-1.8,14.3
		s-13,8-16.5,8s-28.6-5-35.6-6.8S250.2,155.6,243.4,158.8z"/>
	<path class="st5" d="M234.5,159.6V92.2c0,0,14.9-2.9,28.1-23c8.8-13.4,12.7-24.1,14.4-30c1-3.6,4.4-6,8.2-5.6
		c3.5,0.4,7.7,1.8,10.2,7.3c4.5,10.3-2.4,35.3-2.4,35.3s-2.8,5,4.3,5h25c3.3,0,6.4,1.1,8.9,3.2c2.6,2.1,4,5.5,3.7,8.8
		c-0.8,9.5-5.8,13.8-5.8,15.8s2.8,5.5,0.8,11.3s-3.3,5.3-3.3,8s-0.5,9.8-2.3,14c-0.9,2.3-2.1,4.4-3.8,6.3c0,0,0.8,9-1.8,14.3
		s-13,8-16.5,8s-28.6-5-35.6-6.8S241.2,156.3,234.5,159.6z"/>
	<path class="st4" d="M264.1,34.3c-2-1.2-3.8-2.6-5.6-4.1c-1.9-1.4-3.6-2.9-5.2-4.5c2,1.2,3.8,2.6,5.6,4.2
		C260.7,31.1,262.5,32.7,264.1,34.3z"/>
	<path class="st4" d="M274.8,26.7c-0.7-0.8-1.4-1.6-2-2.5c-1.1-1.6-2.7-3.8-4.2-6.4s-2.9-4.9-3.8-6.7c-0.5-0.9-1-1.9-1.4-2.9
		c0.6,0.9,1.2,1.8,1.7,2.7c1,1.7,2.4,4,3.9,6.6s3,4.8,4.1,6.5C273.7,24.8,274.3,25.7,274.8,26.7z"/>
	<path class="st4" d="M284.5,0c0.3,3.2,0.4,6.5,0.3,9.7c0.1,3.2,0,6.5-0.3,9.7c-0.3-3.2-0.3-6.5-0.3-9.7
		C284.2,6.5,284.3,3.2,284.5,0z"/>
	<path class="st4" d="M307.1,15.2c-1.3,1.7-2.8,3.3-4.3,4.7c-1.4,1.6-3,3-4.7,4.3c1.3-1.7,2.8-3.2,4.3-4.7
		C303.9,18,305.4,16.5,307.1,15.2z"/>
	<path class="st4" d="M314.1,27.1c-1,1.4-2.2,2.7-3.5,3.8c-1.2,1.3-2.4,2.5-3.9,3.5c1-1.4,2.2-2.7,3.5-3.8
		C311.5,29.3,312.8,28.1,314.1,27.1z"/>
	<path class="st5" d="M305.7,62.7c-0.5,0.7-1,1.4-1.6,2c-1,1.2-2.5,2.8-4.2,4.5s-3.3,3.2-4.5,4.2c-0.6,0.6-1.3,1.1-2,1.6
		c0.5-0.7,1.1-1.3,1.8-1.8l4.4-4.3c1.6-1.7,3.1-3.1,4.3-4.4C304.4,63.8,305,63.2,305.7,62.7z"/>
	<path class="st5" d="M307,53.7c-0.4,0.7-0.9,1.3-1.5,1.8c-1.3,1.4-2.6,2.7-4.1,3.9c-1.7,1.4-3.2,2.7-4.3,3.6
		c-0.6,0.5-1.2,1-1.9,1.4c1.8-1.9,3.8-3.7,5.9-5.4c1.6-1.4,3.1-2.8,4.1-3.8C305.8,54.7,306.4,54.2,307,53.7z"/>
	<path class="st5" d="M306.3,45.5c-0.3,0.6-0.7,1.1-1.2,1.5c-1,1.1-2.2,2.2-3.4,3.1c-2.9,2.1-5.1,3.9-5.2,3.8c1.4-1.6,3.1-3,4.9-4.2
		C304.3,47.6,306.2,45.4,306.3,45.5z"/>
	<path class="st5" d="M303.6,38.7c-1,1.2-2.2,2.3-3.4,3.3c-1.1,1.1-2.4,2.1-3.8,2.9c1-1.2,2.2-2.3,3.4-3.3
		C301,40.5,302.2,39.6,303.6,38.7z"/>
	<path class="st5" d="M298.5,34.7c-0.6,0.7-1.4,1.3-2.2,1.8c-0.7,0.6-1.6,1-2.5,1.3c0.6-0.7,1.3-1.3,2.2-1.7
		C296.7,35.5,297.6,35,298.5,34.7z"/>
	<path class="st5" d="M303.7,74.6c-1.1,1.3-2.3,2.4-3.6,3.5c-1.2,1.2-2.6,2.2-4,3.1c1.1-1.3,2.3-2.4,3.6-3.5
		C300.9,76.5,302.3,75.4,303.7,74.6z"/>
	<path class="st5" d="M344.5,98.1c-2.4,2-4.9,3.8-7.5,5.5c-2.5,1.8-5.1,3.5-7.8,5c2.4-2,4.9-3.8,7.5-5.5
		C339.1,101.2,341.8,99.6,344.5,98.1z"/>
	<path class="st5" d="M344.1,86.6c-1.4,1.3-2.8,2.4-4.4,3.4c-1.5,1.1-3.1,2.1-4.7,2.9c1.4-1.3,2.8-2.4,4.4-3.3
		C340.8,88.4,342.4,87.4,344.1,86.6z"/>
	<path class="st5" d="M340.6,114.4c0.1,0.1-2.6,1.7-5.7,3.8s-5.5,4-5.6,3.9s0.5-0.6,1.5-1.4s2.3-1.9,3.9-2.9s3-2,4.1-2.6
		C339.4,114.9,340,114.6,340.6,114.4z"/>
	<path class="st5" d="M337.7,126.8c-1.8,1.7-3.7,3.2-5.6,4.6c-1.9,1.5-3.9,2.9-6,4.1C329.7,132.4,333.6,129.5,337.7,126.8
		L337.7,126.8z"/>
	<path class="st5" d="M334,142.8c-0.5,0.6-1,1.2-1.7,1.6c-1.1,0.9-2.6,2.2-4.4,3.5s-3.5,2.3-4.7,3.1c-0.6,0.4-1.3,0.8-2.1,1.1
		c0.6-0.5,1.2-1,1.9-1.4c1.2-0.8,2.8-1.9,4.6-3.2s3.3-2.5,4.5-3.3C332.7,143.6,333.4,143.1,334,142.8z"/>
	<path class="st5" d="M330.8,155.7c-0.6,0.7-1.3,1.3-2,1.9c-1.3,1.1-3.1,2.5-5.2,4s-4,2.8-5.5,3.6c-0.7,0.5-1.5,0.9-2.4,1.3
		c0.7-0.6,1.4-1.1,2.2-1.6c1.4-0.9,3.3-2.3,5.3-3.7s3.9-2.9,5.3-3.9C329.3,156.7,330.1,156.2,330.8,155.7z"/>
	<path class="st4" d="M324.7,48.8c-1.7,0.1-3.5,0-5.2-0.3c3.5-0.4,7-0.4,10.4,0C328.2,48.8,326.4,48.9,324.7,48.8z"/>
</g>
<g id="freepik--character-1--inject-119">
	<path class="st4" d="M108,103.2c-1.7-4.2-3-8.6-4-13c-0.9-4.5-0.8-9.1,0.5-13.5c0.2-0.7,2.1-5.1,2.8-5c0.5,0-0.6,4.1-0.3,4.5
		c2.4,4.1,3.5,8.8,3.2,13.5C109.9,94.3,109.2,98.8,108,103.2"/>
	<path class="st6" d="M134.4,127.3c-0.1-3.2-0.2-5.7-0.1-5.7s10.9-1.6,11.2-12.5c0.1-5.3-0.5-16.2-1.2-26
		c-0.7-10.6-9.4-18.9-20.1-19h-1c-11.4,0.5-17.3,10.5-16.4,21.8l1.7,39.8l8.1,8.9c3.8,4.2,10.3,4.5,14.5,0.7
		C133.3,133.2,134.6,130.3,134.4,127.3L134.4,127.3z"/>
	<path class="st7" d="M134.3,121.6c-5-0.1-10-1.6-14.2-4.4c0,0,3.3,8.4,14.2,7.5V121.6z"/>
	<path class="st4" d="M141.5,92c0,0.8-0.7,1.5-1.5,1.6c-0.8,0.1-1.5-0.6-1.6-1.4c0,0,0,0,0,0c0-0.8,0.7-1.5,1.5-1.6
		C140.7,90.5,141.5,91.2,141.5,92C141.5,92,141.5,92,141.5,92z"/>
	<path class="st4" d="M142,87.6c-0.2,0.2-1.4-0.7-3-0.7s-2.9,0.8-3.1,0.6s0.1-0.5,0.6-0.8c0.7-0.5,1.6-0.7,2.5-0.7
		c0.9,0,1.7,0.3,2.4,0.8C141.9,87.1,142.1,87.5,142,87.6z"/>
	<path class="st4" d="M125.9,92.2c0,0.8-0.7,1.5-1.5,1.6c-0.8,0.1-1.5-0.6-1.6-1.4c0,0,0,0,0,0c0-0.8,0.7-1.5,1.5-1.6
		C125.1,90.7,125.8,91.3,125.9,92.2C125.9,92.2,125.9,92.2,125.9,92.2z"/>
	<path class="st4" d="M125.5,88.1c-0.2,0.2-1.4-0.7-3-0.7s-2.9,0.8-3.1,0.6s0.1-0.4,0.7-0.8c0.7-0.5,1.6-0.7,2.5-0.7
		c0.9,0,1.7,0.3,2.4,0.8C125.4,87.6,125.6,88,125.5,88.1z"/>
	<path class="st4" d="M131.4,101c0.9-0.3,1.8-0.4,2.7-0.5c0.4,0,0.8-0.1,0.9-0.4c0-0.4-0.1-0.9-0.3-1.3c-0.4-1-0.8-2.1-1.2-3.3
		c-1.7-4.7-2.9-8.5-2.8-8.6s1.7,3.7,3.4,8.3l1.2,3.3c0.3,0.5,0.3,1.1,0.2,1.7c-0.1,0.3-0.4,0.5-0.7,0.6c-0.2,0.1-0.5,0.1-0.7,0.1
		C133.2,101.2,132.3,101.2,131.4,101z"/>
	<path class="st4" d="M126,82.4c-0.2,0.4-1.8,0.2-3.8,0.4s-3.6,0.7-3.8,0.3c-0.1-0.2,0.2-0.6,0.8-1.1c0.9-0.6,1.8-0.9,2.8-1
		c1-0.1,2,0,3,0.4C125.7,81.8,126.1,82.2,126,82.4z"/>
	<path class="st4" d="M141.4,81.9c-0.3,0.4-1.4,0-2.8,0s-2.6,0.3-2.8-0.1c-0.1-0.2,0.1-0.6,0.6-0.9c1.4-0.9,3.2-0.9,4.6,0.1
		C141.3,81.4,141.5,81.7,141.4,81.9z"/>
	<path class="st6" d="M107.6,94.1c-0.2-0.1-7.5-2.3-7.3,5.2s7.6,5.8,7.6,5.6S107.6,94.1,107.6,94.1z"/>
	<path class="st7" d="M105.6,102c0,0-0.1,0.1-0.3,0.2c-0.3,0.1-0.7,0.1-1,0c-1-0.6-1.6-1.7-1.6-2.9c0-0.6,0.1-1.3,0.3-1.9
		c0.1-0.5,0.5-0.9,1-1c0.3-0.1,0.6,0.1,0.8,0.3c0.1,0.2,0.1,0.4,0.1,0.4s0.2-0.1,0.1-0.4c-0.1-0.2-0.2-0.3-0.3-0.5
		c-0.2-0.1-0.5-0.2-0.7-0.2c-0.6,0.1-1.1,0.6-1.3,1.2c-0.3,0.7-0.4,1.4-0.4,2.1c0.1,1.5,0.9,2.9,2,3.2c0.4,0.1,0.8,0,1.2-0.2
		C105.6,102.2,105.6,102,105.6,102z"/>
	<path class="st4" d="M139.2,70.8c1.2-0.7-2.6-4.5-5.6-5.8c-4.6-1.9-11.4-3-15.6-1.7c-4.9,1.6-9,4.2-11.4,8.8
		c-2.3,4.7-3.3,9.9-2.9,15.1c0,1.6,0.4,3.2,1.2,4.5c1.1,1.6,3.1,2.6,3.1,4.9c0,0.8,0.3,1.6,0.8,2.3c1.4,1.4,3,0,3.8-1.4
		c1.6-3,1.6-6.5,1.7-9.8c0.2-2.4-0.1-4.8-0.7-7.1c-0.4-1.2-1-2.4-1.3-3.7c-0.4-1.3-0.3-2.6,0.4-3.8c0.2-0.2,0.4-0.4,0.6-0.6
		c2.1-1.9,5-2.6,7.7-1.7c4.3,1.4,11.5,3.4,13.3,1.9c1.3-0.9,2.4-2.1,3.3-3.5L139.2,70.8z"/>
	<path class="st4" d="M133.7,106.2c0,0.1-0.3,0.4-0.9,0.6c-1.7,0.4-3.4-0.2-4.5-1.6c-0.4-0.5-0.4-0.9-0.3-1s1.1,0.9,2.7,1.5
		S133.6,106,133.7,106.2z"/>
	<path class="st8" d="M140.5,420.8l-4.2,22.4c0,0,21.3,11.8,20.9,16l-43.6-6.5l5.1-35.1L140.5,420.8z"/>
	<g class="st9">
		<path d="M140.5,420.8l-4.2,22.4c0,0,21.3,11.8,20.9,16l-43.6-6.5l5.1-35.1L140.5,420.8z"/>
	</g>
	<path class="st0" d="M123.1,439.2c-0.9,0.1-1.6,0.9-1.5,1.9c0.1,0.9,0.9,1.6,1.8,1.5c1-0.1,1.7-1,1.6-2c-0.2-0.9-1.1-1.6-2.1-1.4"
		/>
	<path class="st4" d="M113.6,452.6l0.7-3.5l41.6,7.6c0,0,1.8,1.1,1.4,2.5L113.6,452.6z"/>
	<path class="st4" d="M137.1,443c0,0.2-1.1,0.1-2.3,0.7s-1.9,1.3-2,1.2s0.3-1.3,1.7-1.9S137.1,442.8,137.1,443z"/>
	<path class="st4" d="M141.3,445.6c0,0.2-1,0.4-1.8,1.2s-1.2,1.7-1.4,1.7s-0.2-1.3,0.9-2.2S141.4,445.4,141.3,445.6z"/>
	<path class="st4" d="M143.1,451.5c-0.2,0-0.3-1.1,0.4-2.2s1.8-1.4,1.9-1.2s-0.6,0.7-1.2,1.6S143.3,451.5,143.1,451.5z"/>
	<path class="st4" d="M137.4,437.8c-0.1,0.2-1.1-0.3-2.3-0.4s-2.2,0.1-2.3-0.1s0.9-0.8,2.4-0.7S137.6,437.7,137.4,437.8z"/>
	<path class="st10" d="M126.2,426.1l-0.4,22.7c0,0,23,8,23.3,12.3l-44.1,0.8l-0.8-35.5L126.2,426.1z"/>
	<path class="st0" d="M112.2,447.2c-0.9,0.3-1.4,1.2-1.2,2.1c0.3,0.9,1.1,1.4,2,1.2c0.9-0.3,1.5-1.3,1.3-2.2c-0.4-0.9-1.4-1.3-2.3-1
		"/>
	<path class="st4" d="M105,461.9l0.1-3.6l42.3,0.6c0,0,2,0.8,1.8,2.2L105,461.9z"/>
	<path class="st4" d="M126.5,448.6c0,0.2-1.1,0.3-2.1,1s-1.6,1.6-1.8,1.5s0.1-1.3,1.4-2.2S126.6,448.4,126.5,448.6z"/>
	<path class="st4" d="M131.2,450.5c0,0.2-0.9,0.6-1.6,1.5s-0.9,1.9-1.1,1.9s-0.4-1.2,0.5-2.4S131.2,450.3,131.2,450.5z"/>
	<path class="st4" d="M133.9,456c-0.2,0-0.5-1,0-2.2s1.5-1.7,1.6-1.5s-0.5,0.8-0.9,1.8S134.1,455.9,133.9,456z"/>
	<path class="st4" d="M126.1,443.4c-0.1,0.2-1.1-0.1-2.3,0s-2.2,0.5-2.3,0.3s0.8-1,2.2-1.1S126.2,443.3,126.1,443.4z"/>
	<path class="st4" d="M95.1,249.5l0.6,22.5l6.7,69.9c0,0-2.1,34-3.5,53.2c-1.2,16.7,2.2,45.6,2.2,45.6l28.1-0.7l7.5-96.9l4.7-60.5
		l9.5-31.6L95.1,249.5z"/>
	<path class="st4" d="M164.5,254.7l1.8,91.4c0.1,4.6-0.7,9.3-2.3,13.6l-24.1,67.2l-1.2,4.4l-16.9-3.6l8.2-178.2L164.5,254.7z"/>
	<path class="st5" d="M141,270.8c0,0,0,0.1,0,0.4s0,0.7,0,1.3c0,1.2,0,2.8,0,5c0,4.3-0.1,10.5-0.3,18.2c-0.4,15.4-1.5,36.6-3.3,59.9
		s-4,44.5-5.5,59.7c-0.8,7.6-1.4,13.8-1.9,18.1c-0.2,2.1-0.4,3.8-0.5,4.9c-0.1,0.5-0.1,1-0.2,1.3c0,0.1,0,0.3-0.1,0.4
		c0-0.1,0-0.3,0-0.4c0-0.3,0.1-0.7,0.1-1.3c0.1-1.2,0.3-2.8,0.4-4.9c0.4-4.3,1-10.5,1.7-18.1c1.5-15.3,3.5-36.4,5.4-59.7
		s2.9-44.5,3.5-59.9c0.3-7.7,0.4-13.9,0.5-18.2c0.1-2.1,0.1-3.8,0.1-4.9c0-0.5,0-1,0-1.3C140.9,271.1,141,270.9,141,270.8z"/>
	<path class="st5" d="M116.5,255.3c0,0.3,0,0.7-0.1,1c-0.2,0.9-0.4,1.8-0.7,2.7c-2.2,6-7.4,10.5-13.7,11.7c-0.9,0.2-1.9,0.3-2.8,0.3
		c-0.3,0-0.7,0-1-0.1c0-0.1,1.5,0,3.8-0.5c6.1-1.3,11.1-5.6,13.4-11.4C116.2,256.8,116.4,255.3,116.5,255.3z"/>
	<path class="st5" d="M142.4,258.9c0,0.8-0.6,1.5-1.4,1.5s-1.5-0.6-1.5-1.4c0-0.8,0.6-1.5,1.4-1.5
		C141.8,257.5,142.4,258.1,142.4,258.9C142.4,258.9,142.4,258.9,142.4,258.9z"/>
	<path class="st5" d="M165.2,269.7c-0.8-0.5-1.4-1.1-2-1.8c-3-3.3-4.9-7.3-5.6-11.7c-0.2-0.9-0.2-1.8-0.1-2.7c0.1,0,0.2,1,0.5,2.6
		c0.8,4.2,2.7,8.2,5.5,11.5C164.5,268.9,165.3,269.6,165.2,269.7z"/>
	<polygon class="st5" points="69.9,295.3 122.3,275.2 140.4,316.2 85,335.5 	"/>
	<path class="st6" d="M108.3,296.6c-2.1-1.9-4.8-4.5-4.9-5s-0.8-3.6-1.4-6.4c-0.4-1.4,0.4-2.9,1.8-3.2c0.4-0.1,0.7-0.1,1.1-0.1
		l3.6-1.4c-0.9-1.7-2-3.4-3.2-4.8c-1.7-1.7-6.5-4.2-6.5-4.2l-0.5-6.2L84.2,268l2,14.2c0,0,3.5,13.4,5.1,14.6s6,1.9,6,1.9
		c1.8,2,5.4,1.2,5.4,1.2c4,2.3,3.8-0.6,3.8-0.6c0.1,0.1,0.3,0.2,0.4,0.2C108.6,300,109.6,297.7,108.3,296.6z"/>
	<path class="st7" d="M98,286.7c-0.1,0.8-0.1,1.6,0.1,2.4c0.1,2,0.7,3.9,1.7,5.6c1.2,1.6,2.7,2.9,4.5,3.7c0.7,0.4,1.4,0.7,2.2,0.9
		c-0.6-0.5-1.3-0.9-2-1.3c-1.7-0.9-3.1-2.1-4.2-3.6c-1-1.6-1.6-3.4-1.8-5.3C98.4,288.2,98.2,287.4,98,286.7z"/>
	<path class="st7" d="M95,288.3c-0.2,0.7-0.2,1.5-0.1,2.2c0.1,0.8,0.2,1.6,0.5,2.4c0.2,1,0.7,1.9,1.3,2.7c0.7,0.7,1.4,1.4,2.2,1.9
		l1.9,1.4c0.6,0.5,1.2,0.8,1.9,1.1c-0.5-0.6-1-1.1-1.6-1.5c-0.5-0.4-1.1-0.9-1.8-1.5c-0.8-0.6-1.4-1.2-2.1-1.9
		c-0.6-0.7-1-1.6-1.2-2.5c-0.2-0.7-0.4-1.5-0.6-2.3C95.1,289.1,95,288.3,95,288.3z"/>
	<path class="st7" d="M91.6,290.4c-0.3,0.1,0.4,2.5,1.3,5.3c0.1,0.4,0.4,0.7,0.7,1c0.2,0.2,0.5,0.5,0.8,0.7c0.5,0.4,0.9,0.7,1.4,1
		c0.9,0.5,1.5,0.6,1.5,0.5s-0.5-0.3-1.3-0.9c-0.5-0.3-0.9-0.6-1.3-1c-0.2-0.2-0.5-0.4-0.7-0.7c-0.2-0.2-0.4-0.5-0.5-0.8
		c-0.5-1.4-0.9-2.7-1.3-3.6C92.1,291.4,91.8,290.9,91.6,290.4z"/>
	<path class="st10" d="M146.1,139.4c0,0,12.3,6.1,17.1,13.1s13.1,19.6,13.1,19.6l11.1-28.8l16.6,7.4c0,0-9.5,34.4-11.3,38.2
		c-2.4,5.2-8.2,9.9-17.3,9.3s-6.2-0.3-12.1-5.9l-8-9.4L146.1,139.4z"/>
	<g class="st9">
		<path d="M153.8,166.2c2,9.3,5.5,18.3,10.3,26.6c-1.9-1.9-3.6-3.8-5.2-5.9c-1.4-1.6-3.3-3.9-3.3-3.9
			C155,177.4,153.8,166.2,153.8,166.2"/>
	</g>
	<path class="st4" d="M178.3,185.3c-0.3-0.6-0.4-1.3-0.5-2c-0.3-1.3-0.5-3-0.8-5s-0.4-3.7-0.4-5c-0.1-0.7-0.1-1.4,0-2.1
		c0.5,2.3,0.8,4.7,1,7C178.1,182.1,178.5,185.3,178.3,185.3z"/>
	<path class="st10" d="M106.7,127.5l-0.6-6c0-1.1,1-2,2.1-1.9c0.1,0,0.2,0,0.3,0c7.1,1.5,27.9,6,28.1,7.1c0.1,0.6,0,5-0.1,8.6
		L106.7,127.5"/>
	<path class="st10" d="M81.3,143.2c0,0-7.4,5.2-8.6,19.3c-0.8,8.6-1.8,64.7-1.8,64.7l12,46.7l19.1-4.8l-6.8-49.2l0.7-42.7
		L81.3,143.2z"/>
	<path class="st4" d="M82.8,273.9c0.1-0.1,0.2-0.1,0.3-0.1l1-0.3l3.8-1l13.9-3.6l-0.2,0.2c-1.4-9.8-3.3-22.9-5.4-37.2
		c-0.5-3.4-1-6.7-1.4-9.9l0,0c0.2-13.4,0.4-25.2,0.6-33.7c0.1-4.2,0.2-7.6,0.2-9.9c0-1.1,0.1-2,0.1-2.7V175c0-0.1,0-0.2,0-0.2
		c0,0.1,0,0.2,0,0.2c0,0.2,0,0.4,0,0.7c0,0.6,0,1.6,0,2.7c0,2.4,0,5.8-0.1,9.9c-0.1,8.5-0.2,20.3-0.4,33.7V222l1.4,9.9
		c2,14.3,3.9,27.3,5.3,37.2v0.2h-0.2L88,272.7l-3.8,0.9l-1,0.2C83.1,273.9,82.9,273.9,82.8,273.9z"/>
	<path class="st10" d="M107.9,125.9c0,0-22,10.9-26.6,17.3c-5.6,7.8,9.9,32.8,11,38.9c0.6,3,4.3,25.3,2.5,42.9
		c-1.1,11.7-1.6,23.5-1.3,35.3l71-5.7c0-12.4-3.2-21.9-5.3-37.6l-5.3-51.3l-7.7-26.4l-11-4.6L107.9,125.9z"/>
	<path class="st4" d="M152.6,157.1c0.1,0.2,0.1,0.4,0.1,0.5c0.1,0.4,0.1,0.9,0.3,1.6c0.2,1.4,0.5,3.3,0.8,5.8
		c0.6,4.9,1.4,11.6,2.2,19.1s1.4,14.2,1.8,19.1c0.2,2.5,0.3,4.4,0.4,5.8l0.1,1.6c0,0.2,0,0.4,0,0.6c-0.1-0.2-0.1-0.4-0.1-0.5
		c-0.1-0.4-0.1-0.9-0.2-1.6c-0.1-1.5-0.3-3.4-0.6-5.8c-0.5-5-1.2-11.7-1.9-19.1s-1.5-14.1-2.1-19.1c-0.3-2.4-0.5-4.4-0.6-5.8
		l-0.1-1.6C152.5,157.4,152.5,157.3,152.6,157.1z"/>
	<path class="st4" d="M99.1,162.3c-0.1,0,0-1.5-0.5-3.8c-1.2-6.1-5.4-11.1-11.1-13.5c-2.2-0.9-3.6-1.1-3.6-1.2c0.3,0,0.7,0,1,0.1
		c0.9,0.2,1.8,0.4,2.7,0.8c6,2.2,10.3,7.5,11.3,13.8c0.2,0.9,0.2,1.9,0.2,2.8C99.2,161.6,99.2,162,99.1,162.3z"/>
	<path class="st4" d="M146.9,221.9c-0.5,0-0.9-0.1-1.4-0.2c-1.2-0.2-2.5-0.6-3.7-0.9c-1.8-0.6-3.6-1.2-5.3-2c-2.1-1-4.1-2.1-6.1-3.4
		c-1.9-1.3-3.8-2.7-5.5-4.3c-1.4-1.3-2.7-2.6-3.9-4.1c-0.8-1-1.6-2-2.3-3c-0.3-0.4-0.5-0.8-0.7-1.2c0.1-0.1,1.2,1.6,3.3,4
		c1.3,1.4,2.6,2.7,4,3.9c1.7,1.5,3.5,2.9,5.4,4.2c1.9,1.2,3.9,2.4,6,3.4c1.7,0.8,3.4,1.5,5.2,2.1
		C144.9,221.4,146.9,221.8,146.9,221.9z"/>
	<g class="st9">
		<path d="M95.8,177.2c-4.6,27.2-2.3,56,4.8,82.6l1.8-0.1C103.8,232.1,101.1,204.2,95.8,177.2z"/>
	</g>
	<g class="st9">
		<path d="M127.5,223.6c7.4,3.1,15.4,4.7,23.4,4.8c-1.2,1.8-3.5,2.3-5.7,2.4c-2.2,0.2-4.4,0-6.4-0.6
			C134.7,229,129.9,227.1,127.5,223.6"/>
	</g>
	<path class="st4" d="M136.2,135.2c-0.4,0.1-0.8,0.2-1.2,0.2c-1.1,0.1-2.3,0.1-3.4,0c-3.7-0.4-7.3-1.4-10.8-2.8
		c-4.1-1.5-7.8-2.7-10.4-3.9c-1-0.5-2-1-2.9-1.7c-0.2-0.2-0.5-0.4-0.7-0.6c-0.1-0.1-0.2-0.2-0.2-0.3s0.3,0.3,1,0.7
		c1,0.6,2,1.1,3,1.6c2.6,1.2,6.3,2.3,10.4,3.8c3.4,1.4,7,2.3,10.6,2.9C133.2,135.2,134.7,135.3,136.2,135.2z"/>
	<path class="st4" d="M110.7,120.2c0.1,1.4,0.1,2.8,0,4.2c0,1.4,0,2.8-0.2,4.2c-0.3-1.4-0.4-2.8-0.3-4.2
		C110.2,123,110.3,121.6,110.7,120.2z"/>
	<path class="st4" d="M121.2,122.5c0.2,1.6,0.3,3.3,0.3,4.9c0.1,1.7,0.1,3.3,0,5c-0.4-1.6-0.6-3.3-0.6-4.9
		C120.8,125.9,120.9,124.2,121.2,122.5z"/>
	<path class="st4" d="M133.8,125.7c0.4,1.6,0.5,3.2,0.4,4.9c0.1,1.6-0.1,3.3-0.6,4.8c-0.1-1.6-0.1-3.2,0.1-4.9
		C133.6,128.9,133.6,127.3,133.8,125.7z"/>
	<g class="st9">
		<path d="M107.8,126.9c1.5,2.3,3.9,3.4,6.4,4.7c3.2,1.7,6.6,3.1,10.1,4c3.5,0.9,7.2,0.9,10.7-0.3c-4.7-0.1-9.3-1.5-13.7-3.1
			S112.1,128.6,107.8,126.9"/>
	</g>
	<path class="st6" d="M206.1,129.4l-6.2,0.9l-0.7-8.4l-1.1-7.4l0.5-13l-6.3,7.6c-0.5,0.8-0.9,1.8-0.9,2.7l-0.6,22.9l-0.1,9.8l11.1,7
		l-0.2-11.7l2.6-2.8C206.5,134.2,206.1,129.4,206.1,129.4z"/>
	<rect x="204.8" y="90.6" class="st4" width="25.8" height="69.2"/>
	<rect x="197.9" y="90.6" class="st5" width="25.8" height="69.2"/>
	<path class="st3" d="M215.9,107.4c0,3.2-2.6,5.8-5.8,5.8s-5.8-2.6-5.8-5.8c0-3.2,2.6-5.8,5.8-5.8l0,0
		C213.3,101.6,215.9,104.2,215.9,107.4z"/>
	<path class="st5" d="M230.5,101.1c-0.9,1.8-2,3.5-3.3,5.1c-1.1,1.7-2.3,3.3-3.7,4.8c0.9-1.8,2-3.5,3.3-5.1
		C227.9,104.2,229.2,102.6,230.5,101.1z"/>
	<path class="st5" d="M230.5,108.7c-0.9,1.8-2,3.5-3.3,5.1c-1.1,1.7-2.3,3.3-3.7,4.9c0.9-1.8,2-3.5,3.3-5.1
		C227.9,111.8,229.2,110.2,230.5,108.7z"/>
	<path class="st5" d="M230.5,116.4c-0.9,1.8-2,3.5-3.3,5.1c-1.1,1.7-2.3,3.3-3.7,4.8c0.9-1.8,2-3.5,3.3-5.1
		C227.9,119.5,229.2,117.9,230.5,116.4z"/>
	<path class="st5" d="M230.5,124c-0.9,1.8-2,3.5-3.3,5.1c-1.1,1.7-2.3,3.3-3.7,4.8c0.9-1.8,2-3.5,3.3-5.1
		C227.9,127.2,229.2,125.5,230.5,124z"/>
	<path class="st5" d="M230.5,131.7c-0.9,1.8-2,3.5-3.3,5.1c-1.1,1.7-2.3,3.3-3.7,4.8c0.9-1.8,2-3.5,3.3-5.1
		C227.9,134.8,229.2,133.2,230.5,131.7z"/>
	<path class="st5" d="M230.5,139.3c-0.9,1.8-2,3.5-3.3,5.1c-1.1,1.7-2.3,3.3-3.7,4.9c0.9-1.8,2-3.5,3.3-5.1
		C227.9,142.5,229.2,140.8,230.5,139.3z"/>
	<path class="st5" d="M230.5,147c-0.9,1.8-2,3.5-3.3,5.1c-1.1,1.7-2.3,3.3-3.7,4.9c0.9-1.8,2-3.5,3.3-5.1
		C227.9,150.1,229.2,148.5,230.5,147z"/>
	<path class="st5" d="M230.4,94.3c-0.9,1.8-2,3.5-3.3,5.1c-1.1,1.7-2.3,3.3-3.7,4.8c0.9-1.8,2-3.5,3.3-5.1
		C227.9,97.4,229.1,95.8,230.4,94.3z"/>
	<path class="st5" d="M227.8,90.7c-0.5,1.1-1.1,2.2-1.8,3.1c-0.6,1-1.4,2-2.3,2.8c0.5-1.1,1.1-2.2,1.8-3.1
		C226.2,92.5,226.9,91.5,227.8,90.7z"/>
	<path class="st6" d="M192.6,119.3c1.4-2.5,3.1-4.9,5-7.2c0.6-0.8,1.3-1.4,2.1-1.9c0.9-0.5,1.9-0.4,2.7,0.2c0.8,0.8,0.9,2,0.4,3
		c-0.5,1-1.2,1.8-1.9,2.6c-0.8,0.8-1.3,1.7-1.5,2.8c0,1,0.2,2,0.6,3c0.8,3.3-0.2,6.8-2.6,9.2"/>
	<path class="st7" d="M197.4,131c0,0,0.3-0.4,0.9-1.2c0.7-1.1,1.3-2.3,1.5-3.6c0.2-0.9,0.3-1.8,0.2-2.7c-0.1-1-0.3-2-0.6-3
		c-0.2-0.6-0.2-1.2-0.2-1.8c0.1-0.6,0.3-1.2,0.7-1.8c0.7-1.1,1.7-1.9,2.4-2.9c0.3-0.5,0.6-1,0.6-1.6c0.2-1.1-0.6-2.1-1.7-2.3
		c-0.5-0.1-1.1,0.1-1.5,0.4c-0.9,0.6-1.6,1.3-2.2,2.1c-0.6,0.8-1.2,1.5-1.7,2.1c-1,1.3-1.8,2.5-2.3,3.3c-0.2,0.4-0.5,0.8-0.8,1.2
		c0.2-0.5,0.4-0.9,0.6-1.3c0.7-1.2,1.4-2.3,2.1-3.4c0.5-0.7,1-1.4,1.7-2.2c0.6-0.9,1.4-1.7,2.3-2.3c0.5-0.3,1.2-0.5,1.8-0.4
		c0.7,0,1.3,0.3,1.7,0.9c0.7,1.2,0.6,2.7-0.2,3.8c-0.8,1.1-1.7,1.9-2.4,2.9c-0.3,0.5-0.5,1-0.6,1.5c-0.1,0.5,0,1.1,0.1,1.6
		c0.3,1,0.5,2.1,0.6,3.1c0,0.9,0,1.9-0.3,2.8c-0.3,1.3-0.9,2.6-1.7,3.6c-0.2,0.3-0.5,0.6-0.7,0.8C197.5,131,197.4,131,197.4,131z"/>
</g>
<g id="freepik--character-3--inject-119">
	<path class="st8" d="M361.6,222.5c-1.4,0.8-14.9,0.9-14.9,0.9l0.5,10.8l26.7,2.6L361.6,222.5z"/>
	<path class="st4" d="M289.9,214.1c-0.5,0.6-0.8,1.3-0.9,2.1c0,0.8,23.3,17.9,28.1,21.4c0.6,0.4,1.2,0.6,1.9,0.6h32l0.2-2.6
		c0,0-29.3-20.9-29.8-20.8S289.9,214.1,289.9,214.1z"/>
	<path class="st1" d="M321.4,216c-0.4,0-28.3-0.4-28.3-0.4s21.2,15.9,24.9,18.6c0.4,0.3,0.9,0.5,1.5,0.5l29.6,0.6L321.4,216z"/>
	<path class="st11" d="M346.8,225h-2.2c0,0-8.1-6-9-6.2c-0.4-0.1-6.6-0.9-6.6-0.9l-7,2.7c0,0-0.4,1.6,2.4,1.9c2.1,0,4.1-0.4,6-1.2
		c0,0,6.3,6.2,8.9,7.7s7.8,3.8,7.8,3.8L346.8,225z"/>
	<g class="st9">
		<path d="M361.6,222.5c-1.4,0.8-14.9,0.9-14.9,0.9l0.5,10.8l26.7,2.6L361.6,222.5z"/>
	</g>
	<path class="st10" d="M387.9,361.5l12.8,31l-38.5,16.1c-1.3-3.8,15.5-19.5,15.5-19.5l-9-19.5L387.9,361.5z"/>
	<g class="st12">
		<path class="st3" d="M388.9,382.5c0.9-0.1,1.7,0.5,1.8,1.3c0.1,0.9-0.5,1.7-1.3,1.8c-0.9,0.1-1.8-0.5-1.9-1.4
			c0-0.8,0.8-1.8,1.6-1.8"/>
	</g>
	<path class="st3" d="M400.7,392.5l-1.3-3.1l-36.5,16.7c0,0-1.4,1.5-0.7,2.6L400.7,392.5z"/>
	<path class="st4" d="M377,389.3c0.1,0.2,1.1-0.1,2.2,0.1s2,0.8,2.1,0.6s-0.6-1.1-2-1.4S376.9,389.1,377,389.3z"/>
	<path class="st4" d="M373.6,392.6c0,0.2,1,0.2,2,0.7s1.5,1.3,1.7,1.2s-0.1-1.2-1.4-1.8S373.6,392.4,373.6,392.6z"/>
	<path class="st4" d="M373.4,398.4c0.2,0,0.1-1.1-0.9-1.9s-2-0.9-2-0.7s0.8,0.5,1.5,1.2S373.2,398.5,373.4,398.4z"/>
	<path class="st4" d="M375.4,384.6c0.1,0.1,0.9-0.5,2-0.9s2.1-0.4,2.1-0.6s-1-0.5-2.3-0.1S375.3,384.5,375.4,384.6z"/>
	<path class="st4" d="M374.4,379.6c0.7-0.1,1.4-0.4,1.9-0.8c1-0.7,1.9-1.5,2.6-2.5c0.2-0.2,0.3-0.4,0.4-0.7c0.1-0.4,0-0.8-0.3-1
		c-0.3-0.2-0.7-0.2-1-0.1c-0.2,0.1-0.5,0.2-0.7,0.4c-0.4,0.3-0.7,0.6-1,0.9c-0.5,0.6-1,1.2-1.3,1.9
		C374.7,378.3,374.5,379,374.4,379.6c0.2,0.1,0.4-0.7,1-1.7c0.4-0.6,0.8-1.2,1.3-1.7c0.3-0.3,0.6-0.6,1-0.8c0.4-0.3,0.7-0.4,0.9-0.3
		s0.1,0.1,0,0.2c-0.1,0.2-0.2,0.4-0.3,0.5c-0.3,0.4-0.5,0.7-0.8,1c-0.5,0.5-1,1-1.6,1.5C375.5,378.7,374.9,379.2,374.4,379.6z"/>
	<path class="st4" d="M374.8,379.8c0.1-0.7,0-1.4-0.3-2.1c-0.3-0.7-0.7-1.4-1.1-2c-0.3-0.4-0.6-0.7-1-1c-0.4-0.4-1.1-0.6-1.6-0.5
		c-0.3,0.2-0.6,0.5-0.6,0.9c0,0.3,0,0.5,0.1,0.8c0.1,0.5,0.3,0.9,0.5,1.3c0.4,0.7,1,1.2,1.7,1.6c0.6,0.4,1.3,0.6,2,0.5
		c-0.6-0.3-1.2-0.6-1.8-0.9c-0.6-0.4-1-0.9-1.4-1.6c-0.2-0.4-0.3-0.7-0.4-1.1c-0.1-0.4-0.1-0.8,0.1-0.9c0.3,0,0.7,0.1,0.9,0.4
		c0.3,0.3,0.6,0.5,0.9,0.9c0.5,0.5,0.9,1.1,1.2,1.8C374.6,379,374.7,379.8,374.8,379.8z"/>
	<path class="st10" d="M345.1,374.1l11.3,31.6L317.2,420c-1.1-3.8,16.4-18.7,16.4-18.7l-8-19.9L345.1,374.1z"/>
	<g class="st12">
		<path class="st3" d="M345.1,395.1c0.9,0,1.6,0.6,1.8,1.4c0.1,0.9-0.5,1.6-1.4,1.8c-0.9,0-1.7-0.6-1.9-1.5c0-0.8,0.8-1.8,1.7-1.7"
			/>
	</g>
	<path class="st3" d="M356.4,405.7l-1.1-3.2L318,417.4c0,0-1.5,1.4-0.8,2.5L356.4,405.7z"/>
	<path class="st4" d="M332.9,401.3c0.1,0.2,1.1-0.1,2.2,0.2s2,0.9,2.1,0.8s-0.5-1.1-2-1.5S332.8,401.1,332.9,401.3z"/>
	<path class="st4" d="M329.4,404.5c0,0.2,1,0.2,1.9,0.8s1.5,1.4,1.6,1.3s-0.1-1.2-1.3-1.9S329.4,404.3,329.4,404.5z"/>
	<path class="st4" d="M328.9,410.3c0.2,0,0.1-1.1-0.8-2s-1.9-1-1.9-0.8s0.7,0.5,1.4,1.3S328.7,410.3,328.9,410.3z"/>
	<path class="st4" d="M331.6,396.5c0.1,0.1,0.9-0.4,2-0.8s2.1-0.3,2.1-0.5s-1-0.6-2.3-0.2S331.4,396.4,331.6,396.5z"/>
	<path class="st4" d="M330.8,391.5c0.7-0.1,1.4-0.3,2-0.7c0.7-0.4,1.3-0.8,1.8-1.4c0.3-0.3,0.6-0.6,0.9-1c0.2-0.2,0.3-0.4,0.4-0.7
		c0.2-0.4,0-0.8-0.3-1c-0.3-0.2-0.7-0.3-1-0.1c-0.2,0.1-0.5,0.2-0.7,0.4c-0.4,0.3-0.7,0.5-1.1,0.9c-0.6,0.5-1,1.2-1.4,1.9
		c-0.4,0.6-0.6,1.3-0.6,2c0.1,0,0.3-0.7,1-1.8c0.4-0.6,0.9-1.1,1.4-1.6c0.3-0.3,0.6-0.5,1-0.8c0.4-0.3,0.7-0.4,0.9-0.2
		s0.1,0.1,0,0.2c-0.1,0.2-0.2,0.3-0.3,0.5c-0.3,0.3-0.5,0.7-0.8,1c-0.5,0.5-1.1,1-1.6,1.4C331.9,390.8,331.4,391.1,330.8,391.5z"/>
	<path class="st4" d="M331.2,391.7c0.1-0.7,0.1-1.4-0.2-2c-0.4-1.2-1.1-2.2-2-3.1c-0.4-0.4-1-0.6-1.6-0.5c-0.4,0.1-0.6,0.5-0.6,0.8
		c0,0.3,0,0.5,0.1,0.8c0.1,0.5,0.3,0.9,0.5,1.3c0.4,0.7,0.9,1.3,1.6,1.7c0.6,0.5,1.3,0.7,2,0.6c-0.6-0.3-1.2-0.6-1.7-1
		c-0.5-0.4-1-1-1.3-1.6c-0.2-0.4-0.3-0.8-0.4-1.1c-0.1-0.4-0.1-0.8,0.1-0.8s0.6,0.1,0.9,0.4c0.3,0.3,0.6,0.6,0.9,0.9
		c0.4,0.6,0.8,1.2,1.1,1.8C331,390.9,331.1,391.7,331.2,391.7z"/>
	<path class="st4" d="M360.9,105.1c-1.5,1.3-1.9,3.5-1.7,5.5s0.8,3.9,0.8,5.9c0.1,3.9-1.9,7.5-1.9,11.4s2.2,7.4,2.6,11.3
		c0.4,3.6,4.6,6.4,3.7,9.9s-6.9,8.3-5.1,11.6c0.3,0.6,0.8,1.1,1.4,1.4c0.7,0.2,1.3,0.2,2,0l9.2-1.7c1.2-0.1,2.2-0.6,3.2-1.3
		c0.8-1,1.3-2.2,1.3-3.5c0.8-7.7-1-15.4-2-23.1c-1.1-9-1.2-18.1-0.1-27.1"/>
	<path class="st11" d="M373.4,157.2"/>
	<path class="st11" d="M361.6,115c0.1-9.4,7.4-17.1,16.8-17.7c9.6-0.6,17.8,6.7,18.4,16.3c0,0.2,0,0.5,0,0.7l-0.4,39.2
		c0,0.8-0.3,1.5-0.7,2.1c-2.6,3.2-6.5,5.3-10.6,5.8c-3.6,0.1-7.1-0.9-10.1-2.9c-1-0.7-1.6-1.8-1.5-3l0.5-8.7c0,0,0-0.1,0-0.1
		c-0.8,0-1.6-0.1-2.4-0.2c-2.3-0.7-8-3.4-9.4-12.2C361.6,131.3,361.5,123.1,361.6,115z"/>
	<path class="st4" d="M373.5,128.7c-0.8-0.3-1.7-0.4-2.5-0.4c-0.4,0-0.8-0.1-0.8-0.4c0-0.4,0.1-0.8,0.3-1.1c0.4-0.9,0.8-1.9,1.2-2.9
		c1.6-4.2,2.8-7.7,2.7-7.7s-1.6,3.3-3.3,7.5c-0.4,1-0.8,2-1.1,3c-0.2,0.5-0.3,1-0.2,1.5c0.1,0.3,0.4,0.5,0.6,0.6
		c0.2,0.1,0.4,0.1,0.7,0.1C371.8,128.8,372.7,128.8,373.5,128.7z"/>
	<path class="st4" d="M364,121.7c0,0.8,0.6,1.4,1.4,1.4c0.8,0.1,1.4-0.5,1.5-1.2c0,0,0,0,0,0c0-0.8-0.6-1.4-1.4-1.4
		C364.7,120.4,364.1,120.9,364,121.7C364,121.7,364,121.7,364,121.7z"/>
	<path class="st4" d="M364.4,118.2c0.2,0.2,1.3-0.6,2.9-0.5s2.6,1.1,2.8,0.9s0-0.5-0.5-1c-1.2-1.2-3.1-1.4-4.5-0.3
		C364.5,117.7,364.3,118.1,364.4,118.2z"/>
	<path class="st4" d="M378.6,121.8c0,0.8,0.6,1.4,1.4,1.4c0.8,0.1,1.4-0.5,1.5-1.3c0,0,0,0,0,0c0-0.8-0.6-1.4-1.4-1.4
		C379.4,120.5,378.7,121.1,378.6,121.8C378.6,121.8,378.6,121.8,378.6,121.8z"/>
	<path class="st4" d="M379.2,118.7c0.2,0.2,1.3-0.8,3-0.9s2.9,0.8,3.1,0.5s-0.1-0.5-0.7-0.9c-1.5-1-3.5-0.9-4.9,0.3
		C379.3,118.2,379.1,118.7,379.2,118.7z"/>
	<path class="st13" d="M373.9,146.6c0,0,6,0.5,13.5-3.9c0,0-2.4,7.8-13.6,6.7L373.9,146.6z"/>
	<path class="st13" d="M374.2,132.3c0.6-0.7,1.6-1.1,2.5-1c0.7,0.1,1.3,0.4,1.8,0.9c0.4,0.5,0.5,1.2,0.1,1.8c-0.5,0.5-1.3,0.7-2,0.5
		c-0.7-0.3-1.4-0.6-2-1.2c-0.2-0.1-0.3-0.3-0.4-0.4C374,132.8,374,132.5,374.2,132.3"/>
	<path class="st4" d="M378.1,129.7c-0.3,0-0.3,1.6-1.7,2.8s-3.2,1-3.2,1.2s0.4,0.3,1.1,0.3c1,0,1.9-0.3,2.7-0.9
		c0.7-0.6,1.2-1.4,1.3-2.4C378.4,130.1,378.2,129.7,378.1,129.7z"/>
	<path class="st4" d="M378.6,113.4c0.1,0.4,1.7,0.2,3.5,0.5s3.3,0.8,3.5,0.4c0.1-0.2-0.1-0.6-0.7-1c-1.6-1-3.6-1.3-5.4-0.7
		C378.9,112.8,378.6,113.2,378.6,113.4z"/>
	<path class="st4" d="M364.5,113.3c0.3,0.3,1.3-0.1,2.6-0.2s2.4,0.1,2.6-0.3c0.1-0.2-0.1-0.5-0.6-0.8c-0.7-0.4-1.4-0.5-2.1-0.4
		c-0.8,0.1-1.5,0.3-2,0.8C364.5,112.8,364.4,113.2,364.5,113.3z"/>
	<path class="st4" d="M377.2,95.2c1-1.3,2.5-2,4.1-2c6.9-0.6,14.2,4.1,17.7,10.1s3,14.6-0.2,20.7l-2.6,0.3
		c-5.3-0.7-13.3-16.2-20.1-24.9C375.2,98.4,376.4,96.4,377.2,95.2z"/>
	<path class="st4" d="M363.8,98.8c3.1-3,8-6.7,13.8-4c0.8,1.7-1.1,3.8-2.7,4.9c-2.3,1.7-4.3,2.8-5.8,4c-3,2.5-6.9,6.6-7.5,11.5
		c0,0.3-0.3,0.3-0.6,0.3s-1.2-2.1-1.5-4.8C359,104.9,360.7,101.9,363.8,98.8z"/>
	<path class="st11" d="M394.7,121.2c0.2-0.1,6.6-2.1,6.6,4.5s-6.7,5.2-6.8,5S394.7,121.2,394.7,121.2z"/>
	<path class="st13" d="M396.6,128.2c0,0,0.1,0.1,0.3,0.2c0.3,0.1,0.6,0.1,0.9,0c0.9-0.6,1.4-1.5,1.4-2.6c0-0.6-0.1-1.1-0.3-1.7
		c-0.1-0.4-0.4-0.8-0.9-0.9c-0.3-0.1-0.6,0.1-0.7,0.3c-0.1,0.2,0,0.3-0.1,0.3s-0.1-0.1-0.1-0.4c0-0.2,0.1-0.3,0.3-0.4
		c0.2-0.1,0.4-0.2,0.6-0.2c0.5,0.1,1,0.5,1.2,1c0.3,0.6,0.4,1.2,0.4,1.9c0.1,1.2-0.6,2.3-1.7,2.9c-0.4,0.1-0.8,0-1.1-0.2
		C396.6,128.4,396.6,128.2,396.6,128.2z"/>
	<path class="st11" d="M313.3,154.1l-9.8,5.1l-3.9-6.6c-1.8-1.1-3.6-2.3-5.2-3.7l-3.5-4c-0.8-0.9-1.1-2-0.9-3.2
		c0-0.2,0.1-0.5,0.3-0.6l1-1.7c0,0-0.5-2.4-0.7-4s1.1-4.3,1.1-4.3l-3.7-7.8c-0.4-0.7-0.3-1.6,0.3-2.2c0.3-0.4,0.8-0.5,1.2-0.2
		c0,0,0,0,0,0c1.2,0.8,4.9,7.2,4.9,7.2l1.4,1.3l1.7,0.3c0,0-0.5-2.4,0.5-3l5,3.6l4.1,5.8c0,0,0.8,8.3,1.9,10.6
		S313.3,154.1,313.3,154.1z"/>
	<path class="st13" d="M294.5,137.3c-0.8-0.9-1.3-1.9-1.8-2.9c-0.5-1-0.9-2.1-1-3.3c0.1,0,0.5,1.4,1.3,3.1S294.6,137.3,294.5,137.3z
		"/>
	<path class="st13" d="M292.1,141.3c-0.4-0.5-0.7-1.1-0.8-1.7c-0.2-0.6-0.3-1.2-0.3-1.9c0.3,0.5,0.5,1.1,0.6,1.8
		C291.9,140,292,140.7,292.1,141.3z"/>
	<path class="st13" d="M293.7,126.7c0.4,0.5,0.8,1,1.2,1.6c0.7,1,1.7,2.3,2.8,3.8c0.6,0.7,1.1,1.4,1.6,2c0.4,0.6,0.9,1,1.5,1.4
		c0.5,0.3,1.2,0.5,1.8,0.5c-0.2,0.1-0.3,0.1-0.5,0.1c-0.5,0-1-0.1-1.4-0.4c-0.6-0.4-1.2-0.9-1.6-1.4c-0.5-0.6-1.1-1.3-1.7-2
		c-1.1-1.4-2.1-2.8-2.8-3.8C294.3,127.9,293.9,127.3,293.7,126.7z"/>
	<path class="st13" d="M301.4,135.3c0,0-0.1-0.5-0.5-1.2c-0.4-0.9-1-1.8-1.8-2.4c-0.5-0.3-0.9-0.7-1.3-1.2c-0.3-0.4-0.5-0.8-0.5-1.3
		c-0.1-0.4-0.1-0.9,0.1-1.3c0.1,0,0,0.5,0.1,1.3c0.1,0.4,0.3,0.8,0.5,1.2c0.4,0.4,0.8,0.8,1.3,1.1c0.8,0.7,1.4,1.6,1.8,2.6
		C301.4,134.4,301.5,134.8,301.4,135.3z"/>
	<path class="st10" d="M409.3,231.2v-17.3c0,0,1.9-27,1.9-35.3s-9.8-26.8-9.8-26.8l-16.1,0.5l-11.8,0.3c-0.1,0-19.5,18.8-19.5,18.8
		c-2.9,7.8-4,16.1-3.3,24.3c0.3,2.3,0.7,4.6,1.4,6.8l4.2,16.3c0,0,2.3,10.9,3.1,14.7c0.6,3,33.6,1.6,48,1.3
		C410.7,234.7,409.3,231.2,409.3,231.2z"/>
	<path class="st10" d="M310.8,146.7c0,0,20.6,29.4,21.3,29.4s24.8-16.9,24.8-16.9s10.5-7.8,16.9-6.4s-1.8,29.5-1.8,29.5
		s-33,18.8-44.1,19.7s-25.5-43.5-25.5-43.5l-1.9-2.5L310.8,146.7z"/>
	<path class="st4" d="M368.3,184.2c-0.2,0.1-0.3,0.2-0.5,0.3l-1.6,0.9l-5.8,3.1l-4,2.1c-0.7,0.4-1.5,0.8-2.3,1.2
		c-0.8,0.3-1.6,0.7-2.3,1.2c-0.7,0.5-1.2,1.3-1.1,2.2c0,1,0.2,1.9,0.4,2.9c0.4,1.9,1,3.9,1.5,6c1.7,8.3,3.9,15.7,5.2,21.1
		c0.7,2.7,1.2,4.9,1.5,6.4c0.1,0.7,0.3,1.3,0.4,1.8c0,0.2,0.1,0.4,0.1,0.6c-0.1-0.2-0.2-0.4-0.2-0.6c-0.1-0.4-0.3-1-0.5-1.7
		c-0.4-1.6-1-3.7-1.6-6.4c-1.4-5.4-3.6-12.8-5.3-21.1c-0.5-2-1.1-4-1.5-6c-0.2-1-0.4-2-0.4-3c0-0.5,0.1-1,0.3-1.5
		c0.2-0.4,0.6-0.8,1-1.1l8.7-4.5l5.9-3l1.6-0.8C367.9,184.3,368.1,184.3,368.3,184.2z"/>
	<path class="st4" d="M331.3,187c-1-3.6-0.8-7.5,0.7-10.9c0.1,0-0.6,2.4-0.8,5.4S331.5,186.9,331.3,187z"/>
	<path class="st4" d="M326.8,185.3c0.1-1.8,0.7-3.6,1.7-5.2c0.9-1.6,2.1-3,3.7-4c-1.2,1.4-2.2,2.8-3.2,4.3
		C328,182,327.3,183.6,326.8,185.3z"/>
	<path class="st4" d="M374.4,176.5c-0.1,0,0.2-1.2,0.4-3.2c0.2-2.6,0-5.1-0.6-7.6c-0.6-2.5-1.6-4.9-3-7.1c-1.1-1.7-1.9-2.6-1.8-2.6
		c0.2,0.2,0.5,0.4,0.6,0.6c0.5,0.6,1,1.2,1.5,1.8c3,4.4,4.4,9.7,3.7,15c-0.1,0.8-0.2,1.6-0.5,2.3C374.7,176,374.6,176.3,374.4,176.5
		z"/>
	<g class="st9">
		<path d="M406.3,163.3c-0.9-1.7-2-3.4-1.9-5.3l-20.1,4.5c-0.9,2.1,0,4.7,1.6,6.4c1.7,1.6,3.7,2.8,5.9,3.7c2.6,1.2,5.4,2.4,8.3,1.8
			c1.9-0.5,3.7-1.5,5.1-2.8c1-0.7,1.9-1.7,2.4-2.9C408.1,166.9,407.2,164.9,406.3,163.3z"/>
	</g>
	<g class="st9">
		<path d="M351.8,192.7l-0.7,0.9c9.1,2,18.1-3.5,20.5-12.5C364.9,185.9,359.5,189.7,351.8,192.7z"/>
	</g>
	<g class="st9">
		<path d="M332.1,176.1c-4.1,1.6-8.3,6-8.7,10.4c-0.1,0.4,0,0.8,0.1,1.2c0.1,0.4,0.5,0.7,1,0.7c0.6-0.1,0.9-0.8,1.1-1.4
			C326.8,182.9,329,179.2,332.1,176.1z"/>
	</g>
	<path class="st4" d="M417.4,156.2c-3.7-2.2-5.7-6.3-5-10.6c0.4-2.4,1.7-4.6,2.5-7s0.9-5.2-0.8-7c-1-1.1-2.5-1.6-3.7-2.5
		c-1.6-1.3-2.7-3-3.2-5c-0.1-1.9,0-3.9,0-5.8c-0.4-11.5-8.8-21.1-20.1-23L376.6,99c0.8,4.8,2.9,9.3,6,13c1.7,1.7,3.2,3.6,4.7,5.5
		c1.3,2,2.1,4.6,1.3,6.9c-0.7,2-2.5,3.4-3.2,5.5c-1.4,4,2.1,8.2,1.5,12.3c-0.2,1.2-0.7,2.4-1.4,3.4c-0.9,0.3-1.8,0.6-2.7,0.9
		c-1.9,0.3-3.7,0.9-5.4,1.8c-1.7,0.9-2.8,2.7-2.9,4.6c4.4-0.3,8.9-0.3,13.4,0.1c-3,4-5.3,11.3-4.4,12.2c1.2,1.2,9.6,3.2,11.2,3.3
		c7,0.5,5.5-4.1,12.4-5c0.7,0,1.4-0.3,2-0.7c0.7-0.8,0.9-2,0.7-3c-0.2-2-0.8-4-1.2-6C410.9,155.8,414.2,156.7,417.4,156.2z"/>
	<path class="st5" d="M386.1,162.4c0,0,0-0.1,0-0.2c0-0.2-0.1-0.3-0.1-0.5c-0.1-0.7,0-1.3,0.1-2c0.3-1.1,0.7-2.1,1.2-3
		c0.7-1.2,1.6-2.4,2.4-3.5c1.1-1.3,1.9-2.8,2.5-4.4c0.3-0.9,0.4-1.8,0.3-2.7c-0.2-1-0.6-1.9-1.1-2.7c-0.5-0.9-1.2-1.7-1.8-2.7
		c-0.6-1-0.9-2.1-0.9-3.3c0.1-1.2,0.4-2.3,1-3.4c0.5-1.1,1.2-2.1,1.8-3.1c1.2-2,1.6-4.3,1.1-6.6c-0.4-2.1-1.3-4.1-2.5-5.9
		c-1.1-1.7-2.4-3.2-3.5-4.7c-1.1-1.3-2.1-2.7-3.1-4.2c-1.4-2.1-2.2-4.5-2.4-7c0-0.7,0-1.3,0.1-2c0-0.2,0.1-0.5,0.2-0.7
		c-0.1,0.9-0.2,1.8-0.1,2.7c0.3,2.5,1.1,4.8,2.5,6.8c0.9,1.4,2,2.8,3.1,4.1c1.3,1.5,2.5,3.1,3.6,4.7c1.3,1.8,2.1,3.8,2.6,6
		c0.2,1.2,0.3,2.4,0.1,3.5c-0.2,1.2-0.6,2.4-1.3,3.4c-1.1,2.1-2.7,4-2.8,6.2c0,1.1,0.3,2.1,0.8,3c0.5,0.9,1.2,1.8,1.7,2.7
		c0.6,0.9,1,1.9,1.1,2.9c0.1,1,0,2-0.3,2.9c-0.6,1.6-1.5,3.2-2.6,4.5c-0.9,1.1-1.7,2.2-2.5,3.4c-0.6,0.9-1,1.9-1.3,2.9
		C386,160.6,386,161.5,386.1,162.4z"/>
	<path class="st5" d="M359.6,243l-4.3-0.3c-1.8,2.1-2.8,4.7-4.6,6.8c-2,2.2-4.5,3.8-7.4,4.7c-2.8,0.9-5.7,1.6-8.6,2
		c0,0.9,0.1,1.8,0.4,2.7c0.3,0.9,0.9,1.6,1.7,2.1c0.8,0.3,1.7,0.3,2.5,0.2c4.5-0.6,9-1.8,13.1-3.7c2.3-1,4.6-2.3,5.9-4.4
		C360.3,250.3,360,246.5,359.6,243z"/>
	<path class="st4" d="M333.3,298.9c0.8,0.9,36.8,83.2,36.8,83.2s24.4-10.2,23.8-11.1s-29.1-74.2-29.1-74.2L333.3,298.9z"/>
	<path class="st4" d="M408.5,234.6l-48.6-0.3l-0.6,10.7c-2.7,6.1-5.3,9.3-8.9,10.5c-14.8,4.8-52.5,17.2-57.9,20.4
		c-6.8,4-5.8,14.5-6.6,21.7s39.5,96.4,39.5,96.4l27.9-11.9l-22.8-72.6l-1.6-9.2l77.2-1.1c0,0,14.7-3.7,14.3-24.1
		S408.5,234.6,408.5,234.6z"/>
	<path class="st8" d="M396.2,270.1c0.2,0.5,0.3,0.9,0.3,1.4c0.2,1.3,0.3,2.7,0.3,4c0,9-5,17.3-13,21.5c-1.2,0.6-2.4,1.2-3.6,1.6
		c-0.5,0.2-0.9,0.3-1.4,0.4c1.7-0.7,3.3-1.4,4.9-2.3c7.7-4.3,12.5-12.4,12.8-21.2C396.5,273.7,396.4,271.9,396.2,270.1z"/>
	<path class="st5" d="M360,235.9c-1-0.9-4-0.6-5,0.3c-1.1,0.9-1.6,2.3-1.3,3.7c0.3,1.4,1.1,2.6,2.2,3.3c1.2,0.9,3,1.3,4.2,0.5
		c0.7-0.6,1.1-1.4,1.2-2.3c0.1-0.9,0.1-1.8-0.1-2.6c-0.1-0.8-0.3-1.6-0.7-2.4c-0.4-0.8-1.3-1.2-2.1-1"/>
	<path class="st5" d="M410.4,233.9c3.1,7.7,6.3,15.4,8.3,23.4s2.9,16.5,1.4,24.7c-1,5.7-2.4,12.3-7.3,15.4c0,0-1.8,1.9-6,2.1
		c-9.1,0.5-25.4,0.2-34.5-0.1c-4.4-0.2-10,0.4-14.4,0.3c13.3-11.6,21-31,18.1-48.3c-0.5-2.7-1.3-5.5-3.4-7.1c-2-1.4-4.5-1.5-6.9-1.6
		s-3,0.5-5.2,0.5c-3.3,0-2.9-8-0.5-8.6L410.4,233.9z"/>
	<path class="st4" d="M400.6,269.7c-0.1,0.5-0.2,0.9-0.4,1.4c-0.3,0.9-0.7,2.1-1.4,3.6c-1.7,3.9-3.7,7.7-6.1,11.3
		c-2.4,3.6-5.1,6.9-8.1,9.9c-1.2,1.2-2.1,2.1-2.9,2.6c-0.3,0.3-0.7,0.6-1.1,0.9c0.3-0.4,0.6-0.7,1-1c0.7-0.6,1.6-1.6,2.7-2.8
		c5.9-6.2,10.7-13.3,14.1-21.1c0.7-1.5,1.2-2.7,1.5-3.6C400.2,270.6,400.4,270.1,400.6,269.7z"/>
	<path class="st4" d="M405,283c-0.1,0.3-0.3,0.6-0.5,0.9c-0.4,0.5-1,1.3-1.7,2.2c-1.9,2.3-4.1,4.5-6.4,6.4c-2.3,1.9-4.8,3.7-7.5,5.2
		c-1,0.6-1.8,1-2.4,1.3c-0.3,0.2-0.6,0.3-0.9,0.4c0-0.1,1.2-0.8,3.2-2c2.6-1.6,5-3.3,7.3-5.3c2.3-1.9,4.5-4,6.5-6.3
		C404,284,404.9,282.9,405,283z"/>
	<path class="st4" d="M415.1,299.3c0,0.1-12.2,0.3-27.3,0.3s-27.3-0.1-27.3-0.3s12.2-0.3,27.3-0.3S415.1,299.2,415.1,299.3z"/>
	<path class="st4" d="M388.6,250.5c-0.1,0.1-1.2-1-3.3-2.4c-1.2-0.8-2.5-1.5-3.9-2.2c-1.6-0.8-3.3-1.5-5-2c-1.7-0.5-3.5-0.9-5.3-1.1
		c-1.5-0.2-2.9-0.3-4.4-0.3c-2.5,0-4.1,0.3-4.1,0.2c0.3-0.1,0.7-0.2,1.1-0.2c1-0.2,2-0.3,3-0.3c1.5-0.1,3,0,4.5,0.2
		c1.8,0.2,3.6,0.6,5.4,1.1c1.8,0.5,3.5,1.2,5.1,2c1.3,0.7,2.6,1.5,3.9,2.3c0.8,0.6,1.6,1.2,2.4,1.9
		C388.1,249.8,388.4,250.1,388.6,250.5z"/>
	<path class="st4" d="M395.8,247.3c-0.8,0-1.6-0.1-2.4-0.3c-1.4-0.3-3.4-0.7-5.6-1.3s-4.1-1.2-5.5-1.7c-0.8-0.2-1.5-0.5-2.2-0.9
		c0.8,0.1,1.6,0.3,2.3,0.6c1.4,0.4,3.3,1,5.5,1.6s4.1,1.1,5.5,1.5C394.3,246.7,395,246.9,395.8,247.3z"/>
	<path class="st4" d="M360.6,243.2c-0.6-0.1-1.1-0.3-1.5-0.7c-1.1-0.8-1.8-2.1-2-3.5c-0.1-1.4,0.3-2.8,1.3-3.9c0.7-0.8,1.4-1,1.4-1
		s-0.5,0.4-1.1,1.2c-1.6,2.1-1.3,5.2,0.7,6.9C360,242.9,360.7,243.1,360.6,243.2z"/>
	<path class="st4" d="M357.8,239.8c0,0.1-0.9,0.1-1.7,0.5s-1.4,1-1.6,0.9s0.3-0.9,1.4-1.4S357.8,239.7,357.8,239.8z"/>
	<path class="st4" d="M360.6,243.5c0,0,0,0.3-0.4,0.6c-0.5,0.4-1.1,0.6-1.8,0.5c-0.9-0.1-1.8-0.3-2.6-0.9c-1-0.6-1.7-1.5-2.1-2.6
		c-0.4-1.1-0.3-2.3,0.2-3.4c0.4-0.9,1.1-1.5,1.9-1.9c0.6-0.3,1.2-0.4,1.8-0.4c0.4,0,0.7,0.1,0.6,0.2c-0.8,0-1.6,0.2-2.3,0.5
		c-0.7,0.4-1.3,1-1.7,1.8c-0.4,1-0.4,2-0.1,3c0.3,1,1,1.8,1.9,2.4c0.7,0.5,1.5,0.8,2.4,0.9c0.6,0.1,1.1,0,1.6-0.3
		C360.5,243.6,360.6,243.4,360.6,243.5z"/>
	<g class="st9">
		<path d="M392.3,254.4L392.3,254.4c-0.5-1.3-1.4-2.4-2.4-3.3c-6.1-5.6-15.7-9.6-23.4-8.5c4.6,0.2,11.8,2.7,15.3,5.5
			c2.8,2.3,5.3,4.9,7.6,7.8c0.6,0.7,1.6,0.8,2.3,0.3C392.3,255.8,392.5,255.1,392.3,254.4z"/>
	</g>
	<g class="st9">
		<path d="M404.5,283.7c-4.7,6.3-11.8,11.8-18.8,15.4c4.1-0.8,9.2-1.8,12.6-4.2C402,292.4,405,288,404.5,283.7z"/>
	</g>
</g>
<g id="freepik--character-2--inject-119">
	<polygon class="st5" points="178.8,461.3 184.7,461.2 197.8,346 192,345.3 	"/>
	<polygon class="st5" points="213.6,461.3 219.5,461.2 232.6,346 226.8,345.3 	"/>
	<polygon class="st5" points="318.5,461.5 312.6,461.5 299.5,347.3 305.3,346.6 	"/>
	<polygon class="st5" points="280.2,461.5 274.3,461.5 261.2,347.3 267,346.6 	"/>
	<rect x="188" y="352.7" class="st5" width="119.8" height="12.4"/>
	<polygon class="st5" points="264.9,214.3 189,215.2 188,352.7 275.2,353.9 	"/>
	<path class="st10" d="M298.9,268.1c-0.4-2.6-8.3-11.4-8.3-11.4s-4-16-5.2-20.6c-0.4-1.4-1-2.7-1.7-3.9c-2.8-4.7-6.8-8.5-11.6-11.2
		l-11-6.2l-2.6-5.9l-28.3-5l-5.7,6.6c0,0-21.3,8.1-24.1,10.6c-3.4,3,6,53.3,6,53.3s-7.3,30.5-8.8,36.9s0.7,15.2,0.7,15.2l14.5-13.8
		c4-5,11.2-11.1,17.5-11.1l54.3,0.2l-2.2-15.2l43.9,8.5c0,0,7.5-14.7,8.1-15S298.9,268.1,298.9,268.1z"/>
	<path class="st3" d="M230.6,211.7c-0.4-0.4,3.4,12.5,7.7,24.4c2.3,6.4,3.5,13.2,3.5,20V299l26-1.8l-3.9-28.3c0,0-3.2-18.2-4-25.2
		c-0.8-6.4-3.6-25.7-3.6-25.7S241.5,222.7,230.6,211.7z"/>
	<path class="st4" d="M288.6,278.7c0-0.2,0-0.4,0-0.7c0.1-0.6,0.2-1.2,0.3-1.8c1.1-3.9,4.1-6.9,8-8c0.6-0.2,1.2-0.3,1.8-0.3
		c0.2,0,0.4,0,0.7,0c0,0.1-0.9,0.2-2.3,0.7c-1.8,0.6-3.4,1.7-4.8,3c-1.3,1.4-2.4,3-3,4.8C288.8,277.8,288.7,278.7,288.6,278.7z"/>
	<path class="st4" d="M290,268.4c2.5-1.3,5.4-1.5,8.1-0.7c0,0.1-1.8-0.2-4.1,0S290,268.6,290,268.4z"/>
	<g class="st9">
		<path d="M203.7,291.9l-2.3,2.6c2.4,2.9,5.6,5,9.2,6.1c3.6,0.8,7.3,1.1,11,1c1.5,0.1,3-0.1,4.5-0.4c1.5-0.4,2.9-1.3,4.4-1.4
			c1,0,2,0.2,3,0.4c1,0.3,2,0.3,3,0c1-0.3,1.7-1.2,1.8-2.3C227,294.6,215.4,292.6,203.7,291.9z"/>
	</g>
	<path class="st11" d="M277.9,295.1l-6.4-6.8l-13.1-3.3c0,0-12,3.6-12.3,3.6s-10.5-2.8-10.5-2.8l-3.6,13.1l18.3,1.3l20.9-0.8
		c0,0,1.1-1,0.5-1.7s3.5,1.2,4,1.2s1.4,0.4,2.1-0.4C278.3,297.9,278.9,296.2,277.9,295.1z"/>
	<path class="st13" d="M271.8,297.6c-0.7-0.1-1.4-0.3-2.1-0.6c-1.3-0.4-3-1-5-1.5s-3.8-0.9-5.1-1.1c-0.7-0.1-1.4-0.3-2.1-0.5
		c0.7,0,1.5,0,2.2,0.2c1.7,0.2,3.5,0.6,5.1,1c1.7,0.4,3.4,1,5,1.6C270.5,296.9,271.2,297.2,271.8,297.6z"/>
	<path class="st13" d="M277.9,295.1c-1-0.3-2-0.6-2.9-0.9c-1.8-0.6-4.3-1.3-7.1-2.1c-2.3-0.8-4.7-1.4-7.1-1.8c-1,0-2,0-3,0.1
		c0.2-0.1,0.5-0.2,0.8-0.3c0.7-0.2,1.5-0.2,2.3-0.2c2.5,0.3,4.9,0.8,7.2,1.6c2.8,0.8,5.3,1.6,7,2.3c0.9,0.3,1.6,0.6,2.1,0.9
		C277.4,294.8,277.7,295,277.9,295.1z"/>
	<path class="st10" d="M200.4,221c0,0-4.6,3.1-7,12.5c-2.4,9.5-12.3,48.2-10.2,54s41.9,11.4,41.9,11.4l4.7-19.9l-20.2-5.5
		c0,0,0.3-18.4,0.5-26.1S200.4,221,200.4,221z"/>
	<polygon class="st3" points="229.4,282 236,283.6 232.1,298.6 225.6,297.6 	"/>
	<path class="st4" d="M183,285.4c0,0,0,0.3,0.1,0.9c0.2,0.9,0.7,1.7,1.4,2.3c1.7,1.6,5,3,9.2,3.7l0,0c1.9,0.6,4.1,1.1,6.4,1.7
		s4.8,1.1,7.5,1.6c5.3,1.1,11.1,2.2,17.4,3.4l-0.3,0.2c0.4-1.8,0.9-3.8,1.4-5.8c1.1-4.6,2.2-9,3.2-13.2l0.2,0.3l-18-5.1l0,0
		c-2.5-1.1-5.1-1.5-7.8-1.4c-2,0.1-4,0.6-5.9,1.4c-1.2,0.5-2.3,1.2-3.4,1.9l-0.8,0.6c-0.1,0.1-0.2,0.1-0.3,0.2l0.3-0.2
		c0.2-0.1,0.4-0.4,0.8-0.6c1.1-0.8,2.2-1.5,3.4-2c1.9-0.9,3.9-1.4,6-1.5c2.7-0.2,5.5,0.3,8,1.3l0,0l18,5l0.2,0.1l-0.1,0.2
		c-1,4.2-2.1,8.6-3.2,13.2c-0.5,2-1,3.9-1.4,5.8l-0.1,0.2h-0.2c-6.2-1.2-12.1-2.3-17.4-3.4c-2.6-0.6-5.2-1.1-7.5-1.6
		s-4.5-1.1-6.4-1.7l0,0c-4.2-0.8-7.6-2.2-9.3-3.9c-0.7-0.6-1.2-1.5-1.4-2.4C182.9,286,182.9,285.7,183,285.4z"/>
	<path class="st4" d="M210.6,274.8c-0.1,0.1-0.7-0.6-1.9-1.4c-1.6-1.1-3.3-1.9-5.1-2.4c-1.8-0.5-3.7-0.8-5.6-0.7
		c-1.5,0-2.4,0.2-2.4,0.1c0.8-0.3,1.6-0.4,2.4-0.5c3.9-0.3,7.8,0.9,11,3.2C209.5,273.6,210.1,274.2,210.6,274.8z"/>
	<path class="st4" d="M213.3,242.4c0,0.4,0,0.8,0,1.2c0,0.8-0.1,1.9-0.2,3.3c-0.2,2.8-0.6,6.6-1.4,10.8c-0.6,3.6-1.4,7.1-2.5,10.6
		c-0.2,0.7-0.4,1.3-0.6,1.8l-0.6,1.3c-0.2,0.4-0.4,0.7-0.6,1c0.1-0.4,0.3-0.8,0.5-1.1l0.5-1.3c0.2-0.5,0.4-1.1,0.6-1.8
		c1-3.5,1.8-7,2.4-10.6c0.7-4.2,1.2-8,1.5-10.8c0.1-1.3,0.3-2.4,0.3-3.3C213.1,243.2,213.2,242.8,213.3,242.4z"/>
	<path class="st4" d="M236.3,232.2c0,0-0.1-0.2-0.3-0.6c-0.3-0.6-0.8-1-1.4-1.4c-1.7-1.1-3.9-0.5-5,1.2c-0.2,0.3-0.4,0.7-0.4,1
		l-0.1,0.6l-0.3-0.6c-1.1-2.1-2-4.2-2.8-6.4c-1.4-3.6-2-7.5-2-11.4c0-0.7,0.1-1.3,0.2-2c0.1-0.6,0.2-1.1,0.3-1.5
		c0.1-0.4,0.2-0.8,0.4-1.2c-0.3,1.6-0.5,3.1-0.5,4.7c0.1,3.8,0.8,7.7,2.2,11.3c0.8,2.2,1.7,4.3,2.7,6.4h-0.4
		c0.5-2.1,2.7-3.4,4.8-2.8c0.4,0.1,0.8,0.3,1.2,0.5c0.6,0.4,1,0.9,1.3,1.5c0.1,0.2,0.1,0.3,0.2,0.5
		C236.3,232.2,236.3,232.2,236.3,232.2z"/>
	<path class="st4" d="M258.4,234.2c-0.1-0.4-0.2-0.7-0.2-1.1c-0.2-1-0.3-2-0.2-3c0.2-1.6,1-3,2.2-4c0.7-0.6,1.7-0.9,2.6-0.9
		c1.1,0,2.1,0.4,2.8,1.2l-0.4,0.2c-0.3-0.7-0.6-1.4-0.9-2.2c-1.7-4.3-3.2-8.1-4.3-11l-1.2-3.3c-0.2-0.4-0.3-0.8-0.4-1.2
		c0.2,0.4,0.4,0.8,0.6,1.2c0.4,0.9,0.8,2,1.4,3.3c1.1,2.8,2.7,6.6,4.4,10.9c0.3,0.7,0.6,1.5,0.9,2.2l0.5,1.4l-1-1.2
		c-0.6-0.7-1.5-1.1-2.4-1.1c-0.9,0-1.7,0.3-2.4,0.8c-1.1,0.9-1.9,2.3-2.1,3.7c-0.1,1-0.1,2,0,3C258.4,233.5,258.4,233.8,258.4,234.2
		z"/>
	<path class="st4" d="M275.2,236.4c0.1,0,2.2,13.7,4.6,30.7s4.2,30.8,4.1,30.8s-2.2-13.7-4.6-30.7S275.1,236.4,275.2,236.4z"/>
	<g class="st9">
		<path d="M226.3,225.6c0.1,3.5,0.9,7,2.3,10.2c1-1.2,2.1-2.5,3.6-2.9c1.9-0.4,3.8,0.7,5.1,2.1c-0.2-1.4-0.8-2.7-1.6-3.9
			c-0.8-1.1-2.2-1.8-3.6-1.9c-1.4,0-2.7,1.1-3,2.5l-2.6-6.1"/>
	</g>
	<path class="st4" d="M211,235.5c-0.1,0-0.1-1-0.3-2.4c-0.4-1.9-1.1-3.7-2.2-5.4c-0.6-0.9-1.3-1.7-2.1-2.5c-0.6-0.6-1.3-1.1-2.1-1.6
		c-1.3-0.8-2.2-1.1-2.1-1.2s0.2,0,0.6,0.2c0.3,0.1,0.5,0.2,0.7,0.3c0.3,0.1,0.6,0.3,0.9,0.5c0.8,0.4,1.5,1,2.2,1.6
		c0.8,0.8,1.5,1.6,2.2,2.5c1.1,1.7,1.9,3.6,2.1,5.6c0.1,0.6,0.1,1.2,0.1,1.8C211.1,235.1,211.1,235.3,211,235.5z"/>
	<path class="st11" d="M258,166.1c-2.2-9.9-11.7-16.3-21.7-14.9l-1,0.1c-10.6,2.2-14.7,12.4-12.3,23l7.5,37.4l1.4,3.9
		c6.5,6.3,16.5,7.4,24.2,2.5l0.2-2.2l-2.3-12c0,0,10.1-3.1,8.7-13.4C262.3,185.4,260.1,175.3,258,166.1z"/>
	<path class="st13" d="M254.3,203.8c-4.8,0.7-9.7,0-14.1-2c0,0,4.3,7,14.4,4.6L254.3,203.8z"/>
	<path class="st4" d="M256.3,173.9c0.1,0.8-0.4,1.5-1.2,1.7c-0.8,0.2-1.5-0.3-1.7-1.1c0,0,0,0,0,0c-0.1-0.8,0.4-1.5,1.2-1.7
		C255.4,172.7,256.2,173.1,256.3,173.9C256.3,173.9,256.3,173.9,256.3,173.9z"/>
	<path class="st4" d="M240.8,175.9c0.1,0.8-0.4,1.5-1.2,1.7c-0.8,0.2-1.5-0.3-1.7-1.1c0,0,0,0,0,0c-0.1-0.8,0.4-1.5,1.2-1.7
		C239.9,174.6,240.7,175.1,240.8,175.9C240.8,175.9,240.8,175.9,240.8,175.9z"/>
	<path class="st4" d="M240.4,173.4c-0.2,0.2-1.4-0.4-3.1-0.2s-2.7,1.2-2.9,1s0-0.4,0.5-0.9c0.6-0.6,1.5-0.9,2.3-1.1
		c0.8-0.1,1.7,0,2.5,0.4C240.2,172.9,240.4,173.3,240.4,173.4z"/>
	<path class="st4" d="M255.6,171.3c-0.2,0.2-1.4-0.4-3.1-0.2s-2.7,1.2-2.9,1.1s0-0.4,0.5-0.9c0.7-0.6,1.5-1,2.3-1.1
		c0.8-0.1,1.7,0,2.5,0.4C255.5,170.9,255.7,171.3,255.6,171.3z"/>
	<path class="st4" d="M247.9,185c0.8-0.4,1.6-0.7,2.5-0.8c0.4-0.1,0.8-0.2,0.8-0.5c0-0.4-0.2-0.8-0.4-1.2l-1.6-2.9
		c-2.3-4.1-4-7.6-3.9-7.7s2.2,3.2,4.5,7.3c0.6,1,1.1,2,1.6,2.9c0.3,0.5,0.5,1,0.4,1.6c-0.1,0.3-0.3,0.6-0.6,0.7
		c-0.2,0.1-0.4,0.2-0.7,0.2C249.6,184.8,248.8,185,247.9,185z"/>
	<path class="st4" d="M239.5,167.2c-0.1,0.4-1.7,0.4-3.6,0.7s-3.3,1-3.6,0.6c-0.1-0.2,0.1-0.6,0.7-1.1c1.6-1.2,3.6-1.5,5.5-1
		C239.2,166.7,239.5,167,239.5,167.2z"/>
	<path class="st4" d="M255.3,165.7c-0.3,0.4-1.7,0.2-3.4,0.4s-3,0.6-3.4,0.3c-0.2-0.2,0-0.6,0.6-1c0.8-0.5,1.7-0.9,2.6-0.9
		c0.9-0.1,1.9,0,2.8,0.4C255.2,165.2,255.4,165.5,255.3,165.7z"/>
	<path class="st4" d="M259.9,156.6c-0.3-1-1.3-1.5-2.3-1.4c0.5-0.2,1-0.5,1.3-0.9c0.4-0.4,0.5-1,0.3-1.5c-0.4-0.8-1.4-0.8-2.2-0.9
		c-1.1-0.2-2.1-0.7-2.9-1.5c-1.1-1.1-1.7-2.7-2.7-3.9c-2.4-3-6.8-3.4-9.7-1c-0.4,0.3-0.8,0.7-1.1,1.1c-3.1-2.5-7.6-2-10.1,1.1
		c-0.5,0.6-0.9,1.3-1.2,2c-4.5-1.3-9.1,1.3-10.4,5.8c-0.4,1.5-0.4,3.2,0,4.7l6.9,3.2c0-1.9,1.5-3.5,3.5-3.5c0.1,0,0.3,0,0.4,0
		c2,0.3,3.5,2.4,5.6,2.4c1.6-0.1,2.8-1.4,4.3-2c1.8-0.7,3.8-0.2,5.6,0.5c1.7,0.9,3.5,1.6,5.4,2c2.3,0.2,4.5-0.4,6.5-1.6
		c0.9-0.4,1.6-1,2.3-1.8C260,158.6,260.2,157.6,259.9,156.6z"/>
	<path class="st4" d="M226.7,160.2l29.5-3.6c-1.3-1.8-3-3.3-5-4.4c-4.3-2.4-9.2-3.4-14-2.8c-4.8,0.6-13.7,7.9-16.7,11.7
		c-2.4,3.1-2,5.3-2,5.3c0.1,3.9,2.9,7.9,4.3,11.5c0.7,1.9,2.4,7.6,2.4,7.6l0,0c1.6-0.2,2-1.6,1.6-3.2l-1.2-6.2
		c2.9-3.1,3.5-7.8,1.3-11.5C226.2,164,224.9,161.5,226.7,160.2z"/>
	<path class="st4" d="M224.9,175.7c-2.1-5-4.2-10.5-3.2-15.9l-0.9,0.1l-0.3,0.3c-2.2-0.5-4.4,1-4.9,3.2c-0.3,1.3,0.1,2.7,1,3.7
		c-1.8,0.2-3.2,1.7-3.2,3.6c0.1,1.2,0.6,2.4,1.4,3.3c0.7,1,1.3,2.1,1.5,3.3c0.2,1.2-0.5,2.5-1.6,2.9c0.7,1.2,2.2,1.7,3.5,1.2
		c-0.3,1.1-0.9,2-1.7,2.8c2.1,1.1,4.7,0.3,6.6-0.9c1.2-0.7,2.2-1.8,2.6-3.1C226.1,178.6,225.5,177.1,224.9,175.7z"/>
	<path class="st11" d="M225.1,181.8c-0.2,0-7.4-1.1-6.1,5.9s8,4.3,8,4.1S225.1,181.8,225.1,181.8z"/>
	<path class="st13" d="M225,189.5c0,0-0.1,0.1-0.3,0.2c-0.3,0.2-0.6,0.2-0.9,0.2c-1-0.4-1.7-1.4-1.9-2.5c-0.1-0.6-0.1-1.2,0-1.8
		c0.1-0.5,0.3-0.9,0.8-1.1c0.3-0.1,0.6,0,0.8,0.2c0.1,0.2,0.1,0.3,0.1,0.3s0.1-0.1,0-0.4c-0.1-0.2-0.2-0.3-0.4-0.4
		c-0.2-0.1-0.5-0.1-0.7-0.1c-0.6,0.2-1,0.7-1.1,1.3c-0.2,0.7-0.2,1.3-0.1,2c0.3,1.4,1.3,2.6,2.3,2.7c0.4,0,0.8-0.1,1.1-0.4
		C225,189.7,225.1,189.5,225,189.5z"/>
	<path class="st5" d="M217.1,176.8c0,0-0.2-0.2-0.2-0.8c0.1-0.8,0.5-1.5,1.1-2c1-0.6,2-1,3.1-1.2c1.3-0.2,2.4-0.9,3-2
		c0.5-1.2,0.5-2.5,0.1-3.8c-0.3-1.2-0.8-2.2-1-3.1c-0.4-1-0.5-2-0.3-3c0.1,1,0.4,2,0.7,2.9c0.3,0.9,0.8,1.9,1.1,3.1
		c0.4,1.3,0.4,2.8-0.1,4.1c-0.3,0.7-0.8,1.3-1.5,1.6c-0.6,0.3-1.2,0.5-1.9,0.7c-1.1,0.1-2.1,0.5-3,1c-0.6,0.4-1,1-1.1,1.7
		C217.1,176.3,217.1,176.6,217.1,176.8z"/>
	<path class="st5" d="M215.1,173.9c0,0-0.2-0.2-0.3-0.6c-0.2-0.6-0.1-1.3,0.1-1.9c0.2-0.4,0.4-0.8,0.7-1.1c0.4-0.3,0.8-0.6,1.3-0.8
		c0.5-0.2,0.9-0.4,1.3-0.7c0.3-0.4,0.5-0.9,0.4-1.4c0-0.5-0.2-1.1-0.2-1.7c-0.2-1.5,0.1-2.9,0.7-4.3c0.3-0.6,0.8-1.1,1.4-1.2
		c0.5-0.1,0.7,0.1,0.7,0.2s-0.2-0.1-0.6,0c-0.5,0.2-1,0.6-1.1,1.1c-0.3,0.8-0.5,1.7-0.6,2.5c0,0.5,0,1,0,1.5c0,0.5,0.2,1.1,0.3,1.7
		c0.1,0.6-0.1,1.3-0.6,1.8c-0.4,0.4-0.9,0.6-1.5,0.8c-0.8,0.2-1.5,0.8-1.8,1.6C214.9,172.3,214.9,173.1,215.1,173.9z"/>
	<path class="st5" d="M254.2,150.4c-0.4,0.3-1,0.3-1.5,0.1c-0.6-0.2-1.1-0.6-1.5-1c-0.5-0.5-1.1-1-1.8-1.3c-1.8-0.7-3.9-0.3-5.3,1
		c-0.8,0.7-1.5,1.7-2.4,2.6c-0.5,0.5-1,0.8-1.7,1c-0.7,0.2-1.3,0.2-2,0c-1.3-0.3-2.4-1-3.6-1.2c-1.1-0.3-2.3-0.4-3.4-0.2
		c-1.9,0.2-3.7,1.1-5.1,2.5c-0.9,0.9-1.7,2-2.2,3.3c-0.3,0.9-0.4,1.4-0.5,1.4s0-0.1,0-0.4c0.1-0.4,0.1-0.7,0.3-1.1
		c0.4-1.3,1.2-2.5,2.1-3.4c1.4-1.5,3.3-2.4,5.3-2.7c1.2-0.2,2.4-0.1,3.6,0.2c1.2,0.3,2.4,1,3.6,1.2c0.6,0.2,1.2,0.2,1.7,0
		c0.6-0.2,1.1-0.5,1.5-0.9c0.9-0.8,1.6-1.8,2.4-2.6c0.8-0.8,1.9-1.3,3-1.4c1-0.1,1.9,0,2.8,0.4c0.7,0.3,1.3,0.8,1.9,1.4
		c0.4,0.4,0.8,0.8,1.3,1C253.3,150.5,253.7,150.5,254.2,150.4z"/>
	<path class="st4" d="M244.2,187.3c0.2-0.1,0.7,1.4,2.2,2.1s3.1,0.1,3.2,0.3s-0.3,0.4-0.9,0.6c-0.9,0.3-1.8,0.2-2.6-0.1
		c-0.8-0.3-1.4-1-1.8-1.8C244,187.7,244.1,187.3,244.2,187.3z"/>
	<path class="st10" d="M336.4,340.9c-2.8-2.4-6.4-3.5-10-3.3l-6.1,19.5c4.5,0.2,9,2.5,13.3,1.3c3.5-1.1,6.1-4.1,6.6-7.8
		C340.5,347,339.1,343.4,336.4,340.9z"/>
	<path class="st14" d="M326.5,337.2c0-0.2,0.7-0.3,1.9-0.3c1.7,0,3.4,0.3,5,0.9c2.4,1,4.6,2.6,6.1,4.7c0.9,1.3,1.6,2.7,2,4.2
		c0.4,1.7,0.5,3.4,0.1,5.1c-0.3,1.7-1.1,3.3-2.2,4.6c-1.1,1.2-2.4,2.2-4,2.7c-2.5,0.9-5.1,1-7.7,0.5c-1.6-0.3-3.3-0.8-4.8-1.5
		c-1.1-0.5-1.6-0.8-1.6-1s0.7-0.1,1.9,0.1s2.8,0.5,4.8,0.7c2.3,0.3,4.5,0,6.6-0.9c1.2-0.5,2.2-1.2,3-2.2c0.8-1.1,1.4-2.3,1.7-3.6
		c0.5-2.7-0.1-5.4-1.6-7.6c-1.3-1.9-3-3.4-5-4.5c-1.4-0.7-2.9-1.2-4.5-1.6C327.1,337.5,326.5,337.4,326.5,337.2z"/>
	<path class="st10" d="M267,411.3l-9.4,38.5l47.8,11.9c0.9-4.6-21.6-20-21.6-20l7-24.4L267,411.3z"/>
	<g class="st12">
		<path class="st3" d="M269.8,434.9c-1-0.1-1.9,0.7-2.1,1.7c-0.1,1,0.6,1.9,1.6,2.1c1.1,0.1,2-0.7,2.2-1.8c0-1-1-2.1-2-2"/>
	</g>
	<path class="st3" d="M257.7,449.8l1-3.9l45.6,12.9c0,0,1.9,1.4,1.3,2.9L257.7,449.8z"/>
	<path class="st4" d="M284.2,442.2c-0.1,0.2-1.3-0.1-2.6,0.2s-2.3,1.1-2.5,0.9s0.6-1.3,2.3-1.7S284.3,442,284.2,442.2z"/>
	<path class="st4" d="M288.3,445.9c0,0.2-1.1,0.3-2.3,1s-1.7,1.6-1.9,1.5s0.1-1.4,1.5-2.2S288.4,445.7,288.3,445.9z"/>
	<path class="st4" d="M289,452.8c-0.2,0-0.1-1.3,0.9-2.3s2.3-1.1,2.3-0.9s-0.9,0.6-1.7,1.5S289.2,452.8,289,452.8z"/>
	<path class="st4" d="M285.8,436.5c-0.2,0.2-1.1-0.5-2.4-0.9s-2.5-0.3-2.5-0.6s1.2-0.7,2.7-0.2S286,436.4,285.8,436.5z"/>
	<path class="st4" d="M286.7,430.7c-0.8-0.1-1.6-0.4-2.3-0.9c-0.8-0.5-1.5-1-2.2-1.6c-0.4-0.4-0.7-0.8-1.1-1.2
		c-0.2-0.2-0.4-0.5-0.5-0.8c-0.2-0.4,0-0.9,0.3-1.2c0.3-0.2,0.8-0.3,1.2-0.2c0.3,0.1,0.6,0.3,0.8,0.4c0.5,0.3,0.9,0.6,1.3,1
		c0.7,0.6,1.2,1.4,1.6,2.2c0.7,1.4,0.8,2.4,0.7,2.4s-0.4-0.9-1.2-2.1c-0.5-0.7-1-1.4-1.6-1.9c-0.4-0.3-0.8-0.6-1.2-0.9
		c-0.4-0.3-0.9-0.5-1.1-0.3s-0.1,0.1,0,0.3c0.1,0.2,0.2,0.4,0.4,0.6c0.3,0.4,0.6,0.8,1,1.1c0.6,0.6,1.2,1.2,1.9,1.7
		C285.9,430.2,286.7,430.5,286.7,430.7z"/>
	<path class="st4" d="M286.3,430.9c-0.2-0.8-0.1-1.7,0.2-2.5c0.4-1.4,1.2-2.6,2.3-3.6c0.5-0.5,1.2-0.8,1.9-0.6
		c0.4,0.2,0.7,0.6,0.7,1c0,0.3,0,0.6-0.1,0.9c-0.1,0.5-0.3,1.1-0.6,1.6c-0.4,0.8-1.1,1.5-1.9,2c-1.3,0.9-2.4,0.8-2.4,0.7
		c0.7-0.4,1.4-0.8,2-1.2c0.6-0.5,1.2-1.2,1.5-1.9c0.2-0.4,0.4-0.9,0.4-1.4c0.1-0.5,0.1-1-0.1-1s-0.8,0.1-1.1,0.5
		c-0.4,0.3-0.7,0.6-1,1c-0.5,0.7-1,1.4-1.3,2.2C286.5,430,286.4,430.9,286.3,430.9z"/>
	<path class="st4" d="M224.9,310.5c-7,0.2-13.7,1.1-18.5,6.3c-6.4,6.8-14.4,16.4-14.8,23.1c-0.7,10,5.4,13,9.8,15.4
		c2,1.1,4.2,1.6,6.4,1.5l81.2-0.6l2.5-13.8l-52.5-13l2.2-19.8L224.9,310.5z"/>
	<path class="st4" d="M241.1,309.6l25.5-1.2c0,0,44.1,2.5,53.5,11.1s8.2,18.4,5.1,27.9S294.5,417,294.5,417s2.2,3.8,1,7.6
		c-1,3.4-3.8,6-7.2,6.9l-24.6-9c0,0-3.3-1.2-1-4.3s3.9-3.7,3.9-3.7v-6.3c0,0,8.6-15.7,9.4-17.9s9-34.1,9-34.1l5.5-9.5
		c0,0-13.3-6.2-24.8-10.8l-26.9-6.6L241.1,309.6z"/>
	<path class="st5" d="M282.5,421.3c0,0.1-0.8-0.6-2.2-1.4c-1.7-1.1-3.6-2.1-5.5-2.8c-1.9-0.7-4-1.3-6-1.6c-0.9-0.1-1.7-0.2-2.5-0.4
		c0.9-0.1,1.7-0.1,2.6,0c2.1,0.2,4.1,0.7,6.1,1.5c2,0.8,3.8,1.8,5.5,3C281.3,420.1,281.9,420.7,282.5,421.3z"/>
	<path class="st5" d="M294.8,417c-0.5-0.4-1-0.9-1.4-1.5c-0.8-1-1.9-2.4-3.1-3.9s-2.1-3-2.8-4.1c-0.4-0.6-0.7-1.2-1-1.8
		c0.5,0.5,0.9,1,1.3,1.6l2.9,4l3,4C294.1,415.8,294.5,416.4,294.8,417z"/>
	<path class="st5" d="M303.8,338.1c-0.8,0.3-1.5,0.5-2.3,0.8c-1.9,0.6-3.6,1.5-5.3,2.5c-1.7,1-3.2,2.3-4.5,3.7
		c-1,1.1-1.6,1.8-1.7,1.8c0.4-0.7,0.9-1.4,1.4-2c1.3-1.5,2.9-2.8,4.5-3.8c1.7-1.1,3.5-1.9,5.4-2.4
		C302.2,338.3,303,338.2,303.8,338.1z"/>
	<path class="st5" d="M278.7,380.8c0-0.2,0-0.4,0.1-0.5c0.1-0.4,0.2-0.9,0.4-1.5c0.4-1.4,0.9-3.2,1.5-5.5c1.3-4.7,3.1-11,5-18
		c1-3.5,1.9-6.9,2.9-9.9c1-2.6,2.6-5.1,4.6-7.1c1.3-1.4,2.8-2.6,4.4-3.6c0.6-0.4,1-0.6,1.3-0.8c0.2-0.1,0.3-0.2,0.5-0.2
		c0,0-0.6,0.4-1.7,1.2c-1.5,1.1-3,2.3-4.3,3.7c-1.9,2-3.5,4.4-4.5,7c-0.9,3-1.8,6.4-2.8,9.9c-2,7-3.8,13.3-5.2,18l-1.6,5.4
		c-0.2,0.6-0.3,1.1-0.5,1.5C278.8,380.5,278.8,380.6,278.7,380.8z"/>
	<path class="st5" d="M256.1,334.8c-0.1,0-0.7-4.8-1.2-10.7s-0.9-10.7-0.7-10.7s0.7,4.8,1.2,10.7S256.2,334.8,256.1,334.8z"/>
	<path class="st5" d="M213.6,347.5c-0.1,0-0.5-0.7-1.3-1.9c-1-1.5-2.3-2.8-3.7-3.9c-1.4-1.1-3-2-4.7-2.7c-1.3-0.5-2.1-0.7-2.1-0.8
		c0.8,0,1.5,0.2,2.2,0.5c1.8,0.6,3.4,1.5,4.9,2.6c1.5,1.1,2.7,2.5,3.7,4.1C213,346.1,213.4,346.8,213.6,347.5z"/>
	<path class="st5" d="M229.2,330.2c0,0.1-1.1-0.6-3-1.5c-2.4-1.1-5-1.9-7.7-2.3c-2.7-0.4-5.3-0.4-8,0c-2,0.3-3.3,0.6-3.3,0.6
		c0.3-0.1,0.5-0.2,0.8-0.3c0.8-0.2,1.6-0.4,2.4-0.6c5.4-1,11-0.2,15.9,2.3c0.7,0.4,1.5,0.8,2.1,1.2C228.8,329.8,229,330,229.2,330.2
		z"/>
	<path class="st5" d="M290.4,342.3c-0.2,0-0.4,0-0.6-0.1l-1.8-0.4l-6.6-1.5c-5.6-1.3-13.3-2.9-21.9-4.6s-16.4-3.1-22-4.1l-6.7-1.1
		l-1.8-0.3c-0.2,0-0.4-0.1-0.6-0.1c0.2,0,0.4,0,0.6,0l1.8,0.2c1.6,0.2,3.9,0.5,6.7,1c5.7,0.9,13.5,2.2,22,3.9
		c8.6,1.7,16.3,3.4,21.9,4.8c2.8,0.7,5,1.2,6.6,1.6l1.8,0.5C290,342.2,290.2,342.2,290.4,342.3z"/>
	<path class="st5" d="M238.9,331.7c-0.1,0-0.3-1.1-1.1-2.6c-0.5-0.9-1.1-1.7-1.9-2.4c-0.9-0.9-1.8-1.7-2.8-2.5
		c-1.8-1.4-3.8-2.6-5.8-3.6c-0.9-0.4-1.7-0.9-2.5-1.4c0.9,0.3,1.8,0.7,2.6,1.1c2.1,1,4.1,2.2,5.9,3.5c1,0.8,2,1.6,2.9,2.5
		c0.7,0.8,1.4,1.6,1.8,2.5c0.3,0.6,0.6,1.3,0.7,2C238.9,331.2,238.9,331.4,238.9,331.7z"/>
	<path class="st4" d="M329.4,344c-0.8,1.1-1.6,2.3-2.3,3.6c-1.1,2.1-1.4,4-1.5,4c0-1.5,0.4-2.9,1.1-4.2
		C327.2,346,328.2,344.8,329.4,344z"/>
	<g class="st9">
		<path d="M276,242.1l5.8,41l0.3,0.6C283.5,269.5,281.4,255.2,276,242.1z"/>
	</g>
	<path class="st0" d="M307.3,265.6l-18.9,33.1l-46.6,1l-0.1,2.1l45.1-0.3l1.4,0l47.6,0.1l9.6-16.6l12.3-17.6
		c0.6-0.8,0.4-1.9-0.4-2.4c-0.3-0.2-0.7-0.3-1-0.3l-47.5,0.2C308.1,264.7,307.6,265.1,307.3,265.6z"/>
	<path class="st11" d="M345.4,284.9c0,0,2.5,2.2,2.1,4.1s-0.3,3.3-2.1,3.5c0.1,1.4-1,2.7-2.5,2.8c0,0,0.5,3-2.9,3.5
		c0,0-1.1,3.2-3.3,2.4c-1.3-0.4-2.5-1-3.6-1.7l-0.6-1.2c0,0-3.2-1.2-2.4-3c0.5-1.1,2.1-1.4,2.1-1.4c-0.4-0.9-0.3-2,0.2-2.8
		c0.8-1,3.3-0.2,3.3-0.2c-0.1-0.9,0.2-1.8,0.8-2.5c0.9-1,4.9,1.7,4.9,1.7l2.2-2.6L345.4,284.9z"/>
	<path class="st13" d="M340.1,298.8c-2.8-1.3-5.4-3-7.8-4.8C335,295.3,337.6,297,340.1,298.8z"/>
	<path class="st13" d="M343,295.3c-2.6-1.2-5-2.6-7.2-4.4c1.3,0.5,2.6,1.2,3.7,2C340.8,293.6,341.9,294.4,343,295.3z"/>
	<path class="st13" d="M339,288.8c1.2,0.4,2.3,1,3.3,1.8c1.1,0.6,2.1,1.3,3.1,2.1c-0.1,0.2-1.6-0.5-3.4-1.7
		C341,290.3,339.9,289.6,339,288.8z"/>
	<path class="st4" d="M357.7,265.8c-0.1,0-0.2,0-0.2,0h-0.7h-2.6l-9.5,0.1l-31.2,0.1h-2.3c-0.7-0.1-1.4,0.2-1.7,0.8l-2.1,3.9
		c-1.4,2.5-2.7,4.9-4,7.2l-6.8,12.3l-4.7,8.2l-1.3,2.3l-0.4,0.6c-0.1,0.1-0.1,0.2-0.1,0.2l0.1-0.2l0.3-0.6c0.3-0.5,0.7-1.3,1.2-2.3
		c1.1-2,2.6-4.8,4.5-8.3l6.7-12.4c1.3-2.3,2.6-4.7,4-7.3l2.1-3.9c0.5-0.7,1.3-1.1,2.1-1h2.3l31.2,0.1l9.5,0.1h2.6h0.7
		C357.6,265.7,357.7,265.8,357.7,265.8z"/>
	<path class="st3" d="M324.2,282.4c-0.6,0.9-0.4,2.2,0.5,2.8c0.9,0.6,2.2,0.4,2.8-0.5c0.6-0.8,0.4-1.9-0.3-2.6
		C326.3,281.3,325,281.5,324.2,282.4z"/>
	<path class="st5" d="M308.7,385.7c0,0,0-0.1,0.1-0.2l0.2-0.6l1-2.3c0.9-2,2.1-4.9,3.6-8.5c3.1-7.3,7.5-17.4,12.4-28.8l0,0
		c0.7-2.9,1.1-5.9,1.2-8.9c0.1-3.5-0.5-7-2-10.3c-0.8-1.5-1.7-2.9-2.8-4.1c-1-1.3-2.2-2.4-3.5-3.3c-1.3-0.8-2.7-1.5-4.1-2
		c-1.4-0.6-2.8-1.1-4.1-1.5c-2.7-0.9-5.2-1.6-7.5-2.1c-4.7-1.1-8.5-1.7-11.1-2.1l-3.1-0.4l-0.8-0.1c-0.1,0-0.2,0-0.3-0.1h0.3
		l0.8,0.1c0.7,0.1,1.7,0.1,3.1,0.3c3.8,0.4,7.5,1.1,11.2,1.9c2.3,0.5,4.9,1.2,7.6,2.1c1.4,0.4,2.7,0.9,4.1,1.5
		c1.5,0.5,2.9,1.2,4.2,2c1.3,1,2.5,2.1,3.5,3.4c1.2,1.3,2.1,2.7,2.9,4.2c1.5,3.3,2.2,6.9,2.1,10.5c-0.1,3-0.5,6.1-1.2,9l0,0
		l-12.6,28.8c-1.6,3.6-2.9,6.5-3.8,8.5l-1,2.3l-0.3,0.6C308.8,385.7,308.7,385.7,308.7,385.7z"/>
</g>
<g id="freepik--speech-bubble--inject-119">
	<path class="st3" d="M159.3,90.8l9.8-5.6c12.4,7.6,28.6,3.8,36.2-8.6s3.8-28.6-8.6-36.2c-12.4-7.6-28.6-3.8-36.2,8.6
		c-5.8,9.3-5.1,21.2,1.6,29.9l0,0L159.3,90.8z"/>
	<path class="st4" d="M159.3,90.8c0.2-0.7,1-4.4,2.7-11.9c0-0.1,0.1-0.1,0.1-0.1c0,0,0,0,0,0l0,0l0,0l-0.1,0.1
		c-2.9-3.7-4.7-8-5.3-12.6c-0.2-1.4-0.3-2.8-0.2-4.2c0-0.7,0.1-1.4,0.1-2.2s0.2-1.5,0.3-2.2c1.3-6.6,5.1-12.5,10.6-16.4
		c3-2.2,6.5-3.7,10.2-4.5c3.9-0.8,7.9-0.7,11.7,0.3c4,1,7.7,2.9,10.8,5.6c3.2,2.7,5.7,6.2,7.2,10.1c1.5,3.7,2.1,7.8,1.8,11.8
		c-0.3,3.8-1.4,7.5-3.2,10.8c-3.3,6-8.8,10.5-15.4,12.5c-2.8,0.8-5.7,1.2-8.6,1.1c-4.6-0.1-9.1-1.5-13-3.9h0.1L159.3,90.8l9.8-5.7
		c0,0,0.1,0,0.1,0c3.9,2.4,8.4,3.7,13,3.8c2.9,0,5.7-0.4,8.4-1.2c3-1,5.9-2.5,8.4-4.5c2.8-2.2,5-4.8,6.7-7.9
		c1.8-3.3,2.9-6.9,3.1-10.7c0.3-4-0.3-7.9-1.8-11.6c-1.5-3.9-4-7.3-7.1-10c-3.1-2.7-6.7-4.6-10.6-5.6c-3.8-1-7.7-1.1-11.5-0.3
		c-3.6,0.7-7,2.2-10,4.4c-5.4,3.9-9.2,9.7-10.4,16.2c-0.1,0.7-0.2,1.5-0.3,2.2s-0.1,1.4-0.1,2.2c-0.1,1.4,0,2.8,0.2,4.1
		c0.6,4.6,2.4,8.9,5.2,12.5c0,0,0,0.1,0,0.1c0,0-0.1,0-0.1,0l0,0l0.2-0.1C160.4,86.4,159.5,90.1,159.3,90.8z"/>
	<polygon class="st10" points="168.1,64.2 171.9,60.4 179.1,66.9 193.4,53.1 196.9,56.9 178.6,74.1 	"/>
</g>
<g id="freepik--Desk--inject-119">
	<polygon class="st0" points="113.8,461.1 109.4,461.1 106.9,310.8 116.2,310.8 	"/>
	<path class="st4" d="M113.8,461.1c0,0,0-0.3,0-0.8s0-1.3,0-2.3c0-2,0.1-4.9,0.1-8.7c0.1-7.6,0.3-18.5,0.4-32.1
		c0.4-27.1,1-64.6,1.7-106.4l0.3,0.3h-9.3l0.3-0.3c1.2,73.5,2.1,134.7,2.3,150.3l-0.1-0.1h3.3L113.8,461.1l-1.1-0.1h-3.3h-0.1V461
		c-0.4-15.6-1.5-76.8-2.7-150.3v-0.3h9.9v0.3c-0.7,41.9-1.4,79.5-1.9,106.6c-0.3,13.5-0.5,24.5-0.6,32c-0.1,3.8-0.1,6.7-0.2,8.7
		c0,1,0,1.7,0,2.2L113.8,461.1z"/>
	<polygon class="st0" points="399.2,461.1 394.8,461.1 393.5,311.2 402.8,311.2 	"/>
	<path class="st4" d="M399.2,461.1c0,0,0-0.3,0-0.8s0-1.3,0-2.3c0-2,0.1-4.9,0.2-8.7c0.2-7.5,0.4-18.5,0.7-32
		c0.6-27,1.5-64.4,2.4-106.1l0.3,0.3h-9.4l0.3-0.3c0.7,73.3,1.2,134.3,1.2,149.9l-0.1-0.1h3.3L399.2,461.1l-1.1-0.1h-3.3l0,0v-0.1
		c-0.3-15.6-0.9-76.6-1.6-149.9v-0.3h9.9v0.3c-1,41.8-2,79.2-2.6,106.3c-0.4,13.5-0.6,24.4-0.8,31.9c-0.1,3.7-0.2,6.6-0.3,8.6
		c0,1,0,1.7-0.1,2.2L399.2,461.1z"/>
	<rect x="85.8" y="299.3" class="st0" width="349.1" height="12.4"/>
	<path class="st4" d="M85.8,299.3h1.8h5.2h20.2l74.5-0.1l247.5-0.2h0.3V312H435l-349.1-0.2h-0.1v-0.1c0-4.3,0-7.4,0-9.4
		S85.8,299.3,85.8,299.3c0,0.4,0,4,0.1,12.4l-0.1-0.1l349.2-0.2l-0.3,0.3v-12.4l0.3,0.3l-247.2-0.1l-74.6-0.1H93h-5.3L85.8,299.3z"
		/>
	<path class="st3" d="M159.8,299.5c0,0,0,0-0.1,0.1l-0.4,0.4c-0.5,0.5-1.1,0.8-1.8,1.1c-1.1,0.5-2.2,0.8-3.4,0.9
		c-1.6,0.2-3.1,0.2-4.7,0.2c-1.8,0-3.6-0.3-5.7-0.5c-2.1-0.3-4.3-0.5-6.4-0.6c-4.9,0-9.8,0.8-14.5,2.3c-5,1.4-9.6,3.1-14.1,4.1
		c-2.1,0.5-4.3,0.8-6.4,1c-1.9,0.2-3.8,0.2-5.7,0c-2.7-0.2-5.4-0.9-7.8-2c-0.9-0.4-1.7-0.9-2.4-1.5l0.2,0.1l0.5,0.3
		c0.6,0.4,1.2,0.7,1.9,1c2.5,1.1,5.1,1.7,7.8,1.9c1.9,0.2,3.8,0.2,5.6,0c2.1-0.2,4.3-0.6,6.3-1.1c4.4-1,9-2.7,14-4.1
		c4.7-1.5,9.7-2.3,14.7-2.3c2.2,0.1,4.3,0.3,6.5,0.7c1.9,0.3,3.7,0.5,5.6,0.6c1.6,0.1,3.1,0,4.7-0.1c1.1-0.1,2.3-0.4,3.3-0.9
		C158.3,300.7,159.1,300.2,159.8,299.5z"/>
	<path class="st3" d="M121.6,299.7c-0.3,0.3-0.7,0.5-1.1,0.7c-1,0.6-2.1,1.2-3.2,1.7c-1.7,0.7-3.4,1.3-5.2,1.7
		c-2.2,0.5-4.5,0.8-6.8,0.9c-4.1,0.1-8.3-0.5-12.2-2c-1.1-0.4-2.1-1.1-2.9-2c-0.2-0.2-0.4-0.5-0.5-0.8c0-0.1-0.1-0.2-0.1-0.3
		c0.2,0.4,0.4,0.7,0.7,1c0.8,0.8,1.8,1.4,2.9,1.8c3.8,1.4,7.9,2,12,1.9c2.3-0.1,4.5-0.3,6.7-0.8c1.8-0.4,3.5-0.9,5.2-1.6
		c1.1-0.5,2.2-1,3.2-1.6C120.8,300.1,121.2,299.9,121.6,299.7z"/>
	<path class="st3" d="M203.5,307.6l0.5,0.2c0.5,0.2,1.1,0.3,1.6,0.3c2.1,0.3,4.2,0,6.1-0.8v0.2c-2.3-1.4-4.9-2.2-7.6-2.4
		c-3.4-0.3-6.9,0.4-9.9,2.1c-0.4,0.2-0.7,0.5-0.8,0.8s0.3,0.6,0.6,0.8c0.4,0.2,0.9,0.3,1.4,0.4l1.5,0.3c2,0.4,4.1,0.7,6.2,1
		c2.2,0.3,4.4,0.4,6.6,0.4c1.1,0,2.3-0.1,3.4-0.3c0.6-0.1,1.1-0.2,1.7-0.3c0.6-0.1,1.1-0.2,1.6-0.4c0.8-0.2,1.5-0.7,2.1-1.2
		c0.5-0.5,0.7-1.2,0.4-1.9c-0.4-0.7-1-1.2-1.7-1.5c-0.7-0.4-1.5-0.7-2.3-0.9c-3.1-1-6.4-1.5-9.7-1.6c-5.6-0.3-11.2,0.5-16.6,2.1
		c-3.5,1.1-6.9,2.5-10,4.4c-1.1,0.7-1.9,1.2-2.4,1.6l-0.6,0.4c-0.1,0.1-0.1,0.1-0.2,0.1c0,0,0.1-0.1,0.2-0.2l0.6-0.5
		c0.5-0.4,1.3-1,2.4-1.6c3.1-1.9,6.5-3.5,10-4.5c5.4-1.7,11-2.4,16.7-2.2c3.3,0.1,6.6,0.7,9.8,1.6c0.8,0.3,1.6,0.6,2.4,1
		c0.8,0.3,1.4,0.9,1.8,1.7c0.3,0.7,0.1,1.6-0.5,2.1c-0.7,0.6-1.4,1.1-2.3,1.4c-0.6,0.2-1.1,0.4-1.7,0.5c-0.6,0.1-1.1,0.2-1.7,0.3
		c-1.1,0.2-2.3,0.2-3.4,0.3c-2.2,0-4.5-0.1-6.7-0.4c-2.1-0.3-4.2-0.6-6.2-1l-1.5-0.3c-0.5-0.1-1-0.2-1.5-0.4
		c-0.2-0.1-0.4-0.3-0.6-0.4c-0.2-0.2-0.2-0.4-0.2-0.7c0.1-0.5,0.5-0.8,0.9-1c3.1-1.7,6.6-2.4,10.1-2.1c2.7,0.2,5.4,1,7.7,2.5
		l0.1,0.1l-0.2,0.1c-2,0.8-4.1,1.1-6.2,0.7C204.9,308,204.2,307.9,203.5,307.6z"/>
	<path class="st3" d="M248.5,299.8c0.2,0.2,0.3,0.4,0.3,0.6c0.2,0.6,0.3,1.2,0.2,1.9c-0.1,1.6-1.3,3.7-3.4,5.4c-1,0.8-2,1.6-3.2,2.2
		c-1,0.5-2,0.9-3.1,1.2c-0.7,0.2-1.5,0.4-2.2,0.5c-0.3,0-0.6,0.1-0.8,0.1c0-0.1,1.2-0.2,2.9-0.7c1-0.3,2-0.7,3-1.3
		c1.1-0.6,2.1-1.3,3.1-2.2c1.7-1.3,2.9-3.1,3.4-5.2C248.9,301.5,248.8,300.6,248.5,299.8z"/>
	<path class="st3" d="M311.1,311.1c-0.5-0.5-1-0.9-1.6-1.3c-1.6-1.1-3.5-1.8-5.5-2c-1.4-0.2-2.8-0.1-4.2,0.1
		c-1.6,0.3-3.2,0.4-4.9,0.4c-1.8-0.2-3.4-0.9-4.9-1.9c-1.5-1-3.1-1.8-4.9-2.4c-3.5-1-7.3-1-10.8-0.1c-2.8,0.7-5.5,1.8-8,3.3
		c-1.6,1-3.2,2-4.6,3.2l-1.2,1c-0.1,0.1-0.3,0.2-0.4,0.3c0,0,0.1-0.1,0.4-0.4s0.6-0.6,1.1-1c1.4-1.2,3-2.3,4.6-3.3
		c2.5-1.6,5.2-2.7,8.1-3.4c3.6-0.9,7.5-0.9,11.1,0.1c1.8,0.5,3.5,1.4,5,2.4c1.4,1,3,1.6,4.6,1.9c1.6,0.1,3.2,0,4.8-0.3
		c1.4-0.2,2.8-0.2,4.3,0c2,0.3,3.9,1,5.5,2.1C310.2,310.1,310.7,310.6,311.1,311.1z"/>
	<path class="st3" d="M367.1,299.5c0,0-0.1,0.1-0.4,0.4c-0.4,0.4-0.8,0.8-1.2,1.1c-1.6,1.4-3.3,2.6-5.1,3.7c-2.8,1.7-5.8,3-8.8,4
		c-1.9,0.6-3.8,1.1-5.7,1.5c-2.1,0.4-4.2,0.6-6.4,0.7c-4.1,0-8.2-0.7-12.1-2c-3.1-1-6-2.4-8.8-4c-1.8-1.1-3.5-2.3-5.1-3.7
		c-0.6-0.5-0.9-0.9-1.2-1.1c-0.1-0.1-0.3-0.3-0.4-0.4c0.2,0.1,0.3,0.2,0.5,0.4c0.3,0.2,0.7,0.6,1.3,1.1c1.6,1.3,3.3,2.5,5.1,3.6
		c2.8,1.6,5.7,3,8.8,4c3.9,1.3,7.9,2,12,2c2.1,0,4.2-0.3,6.3-0.6c1.9-0.4,3.8-0.8,5.6-1.5c3.1-1,6-2.3,8.8-3.9
		c1.8-1,3.5-2.2,5.1-3.6c0.6-0.5,1-0.9,1.3-1.1C366.8,299.7,367,299.6,367.1,299.5z"/>
	<path class="st3" d="M359.1,299.3c-0.1,0.1-0.2,0.1-0.3,0.2c-0.2,0.1-0.5,0.3-0.9,0.5c-0.8,0.4-2,1-3.5,1.6
		c-1.8,0.7-3.6,1.3-5.5,1.8c-2.4,0.6-4.8,1-7.2,1c-4.4-0.1-8.7-1-12.8-2.6c-1.2-0.5-2.3-1-3.5-1.6c-0.4-0.2-0.7-0.4-0.9-0.5
		s-0.3-0.2-0.3-0.2c0.4,0.2,0.9,0.4,1.3,0.6c1.1,0.6,2.3,1.1,3.5,1.5c4,1.6,8.3,2.4,12.7,2.5c2.4,0,4.8-0.4,7.1-1
		c1.9-0.5,3.7-1,5.5-1.7c1.5-0.6,2.7-1.1,3.5-1.5C358.3,299.7,358.7,299.5,359.1,299.3z"/>
	<path class="st3" d="M394.6,300.6h-0.4l-1.1-0.1l-0.8,0h-1c-0.7,0-1.5,0-2.4,0l-1.4,0.1l-1.5,0.1c-1,0.1-2.1,0.3-3.3,0.4
		c-2.5,0.4-4.9,1-7.3,1.8c-2.3,0.8-4.6,1.7-6.8,2.7c-1,0.5-2,1-2.8,1.5l-1.2,0.7l-1.1,0.7c-0.7,0.4-1.3,0.9-1.8,1.3l-0.7,0.5
		l-0.6,0.5l-0.8,0.7c-0.1,0.1-0.2,0.2-0.3,0.2c0,0,0.1-0.1,0.2-0.3l0.8-0.7c0.2-0.2,0.4-0.3,0.5-0.5l0.7-0.6
		c0.5-0.4,1.1-0.9,1.8-1.3l1.1-0.7l1.2-0.7c0.8-0.5,1.8-1,2.8-1.5c2.2-1.1,4.5-2,6.9-2.8c2.4-0.7,4.9-1.3,7.4-1.8
		c1.2-0.1,2.3-0.3,3.3-0.4l1.5-0.1h1.4c0.9,0,1.7,0,2.4,0h1l0.8,0.1l1.1,0.1C394.4,300.5,394.5,300.5,394.6,300.6z"/>
	<path class="st3" d="M317.4,310.8c-0.6-0.7-1.2-1.3-1.9-1.9c-2.1-1.5-4.5-2.6-7-3.2c-1.8-0.4-3.6-0.8-5.5-1c-2-0.3-4.2-0.5-6.4-0.8
		c-2.4-0.3-4.7-0.8-7-1.4c-2.4-0.7-4.9-1.1-7.4-1.5c-4.9-0.4-9.8,0.1-14.5,1.6c-2.1,0.6-4.1,1.4-5.9,2.1s-3.5,1.5-5,2.2
		c-3,1.4-5.4,2.5-7.1,3.4l-1.9,0.9l-0.5,0.2c-0.1,0-0.1,0.1-0.2,0.1l0.2-0.1l0.5-0.3l1.9-1c1.6-0.9,4-2.1,7-3.5
		c1.5-0.7,3.1-1.5,5-2.2c1.9-0.8,3.9-1.6,5.9-2.2c4.7-1.5,9.7-2.1,14.7-1.7c2.5,0.3,5,0.8,7.5,1.5c2.3,0.6,4.6,1.1,6.9,1.4
		c2.2,0.3,4.4,0.5,6.4,0.8c1.9,0.2,3.7,0.6,5.5,1c2.6,0.6,5,1.7,7.1,3.3C316.3,309.4,316.9,310.1,317.4,310.8z"/>
	<path class="st3" d="M238.8,299.5c0,0.3,0,0.5,0,0.8c-0.1,0.7-0.4,1.4-0.7,2.1c-1.2,2.4-3,4.3-5.4,5.6c-2.5,1.3-5.2,2.3-7.9,3
		c-1.1,0.3-1.9,0.5-2.5,0.6c-0.3,0.1-0.6,0.1-0.9,0.2c0.3-0.1,0.6-0.2,0.9-0.3l2.5-0.7c2.7-0.8,5.3-1.8,7.8-3
		c2.3-1.2,4.1-3.1,5.3-5.4C238.2,301.5,238.6,300.5,238.8,299.5z"/>
	<path class="st3" d="M157.8,311.7c0.3-0.3,0.5-0.5,0.9-0.7c0.6-0.4,1.4-1,2.5-1.6c2.9-1.7,5.8-3.3,8.9-4.7c3.6-1.6,7-2.9,9.5-3.8
		c1.2-0.5,2.2-0.8,2.9-1.1c0.4-0.1,0.7-0.3,1.1-0.4c-0.3,0.2-0.7,0.3-1,0.5l-2.9,1.2c-2.4,1-5.8,2.3-9.4,3.9c-3.1,1.4-6,2.9-8.9,4.5
		c-1.1,0.6-2,1.2-2.6,1.6C158.4,311.4,158.1,311.6,157.8,311.7z"/>
	<path class="st3" d="M174.2,300c0,0-0.8-0.1-2.3,0c-2,0.2-4,0.6-5.8,1.4c-2.6,1.2-5.2,2.6-7.6,4.1c-1.5,0.9-3,1.7-4.5,2.4
		c-1.8,0.7-3.6,1.3-5.4,1.7c-3.7,0.7-7.4,1.1-11.1,1.1c-3.5,0.1-6.6,0-9.1,0.1c-2,0-4.1,0.2-6.1,0.5l-1.7,0.3
		c-0.2,0-0.4,0.1-0.6,0.1c0.2-0.1,0.4-0.1,0.6-0.2c0.4-0.1,0.9-0.2,1.6-0.3c2-0.3,4.1-0.5,6.1-0.6c2.6-0.1,5.7-0.1,9.1-0.2
		c3.7,0,7.4-0.4,11.1-1.1c1.8-0.4,3.6-0.9,5.4-1.7c1.6-0.7,3.1-1.5,4.5-2.4c2.4-1.6,5-2.9,7.7-4.1c1.9-0.8,3.9-1.2,6-1.4
		c0.6,0,1.1,0,1.7,0C173.8,300,174,300,174.2,300z"/>
	<path class="st3" d="M402.8,311.7c0.3-0.3,0.5-0.5,0.9-0.7c0.6-0.4,1.4-1,2.5-1.6c2.9-1.7,5.8-3.3,8.9-4.7c3.6-1.6,7-2.9,9.5-3.8
		c1.2-0.5,2.2-0.8,2.9-1.1c0.4-0.1,0.7-0.3,1.1-0.4c-0.3,0.2-0.7,0.3-1,0.5l-2.9,1.2c-2.4,1-5.8,2.3-9.4,3.9c-3.1,1.4-6,2.9-8.9,4.5
		c-1.1,0.6-2,1.2-2.6,1.6C403.5,311.4,403.2,311.6,402.8,311.7z"/>
	<path class="st3" d="M419.3,300c0,0-0.8-0.1-2.3,0c-2,0.2-4,0.6-5.8,1.4c-2.6,1.2-5.2,2.6-7.6,4.1c-1.5,0.9-3,1.7-4.6,2.4
		c-1.8,0.7-3.6,1.3-5.4,1.7c-3.7,0.7-7.4,1.1-11.2,1.1c-3.5,0.1-6.5,0-9.1,0.1c-2,0-4.1,0.2-6.1,0.5l-1.6,0.3
		c-0.2,0-0.4,0.1-0.6,0.1c0.2-0.1,0.4-0.1,0.5-0.2c0.4-0.1,0.9-0.2,1.6-0.3c2-0.3,4.1-0.5,6.1-0.6c2.6-0.1,5.7-0.1,9.1-0.2
		c3.7,0,7.4-0.4,11.1-1.1c1.8-0.4,3.6-0.9,5.4-1.7c1.6-0.7,3.1-1.5,4.5-2.4c2.4-1.6,5-2.9,7.7-4.1c1.9-0.8,3.9-1.2,6-1.4
		c0.6,0,1.1,0,1.7,0C418.9,300,419.1,300,419.3,300z"/>
	<path class="st4" d="M391.9,299.3c0,0.1-14.6,0.2-32.6,0.2s-32.6-0.1-32.6-0.2s14.6-0.2,32.6-0.2S391.9,299.2,391.9,299.3z"/>
</g>
</svg>
